<svg width="117" height="110" viewBox="0 0 117 110" fill="none" xmlns="http://www.w3.org/2000/svg">
<path d="M38.6297 55.498L33.1361 50.432C30.5946 54.2354 25.215 63.0309 23.4266 65.9057C21.0013 69.8042 19.4152 69.3654 18.3706 69.3654C15.2952 69.3152 14.6796 65.9599 14.7562 64.2885L15.383 34.1406C11.3577 29.6487 3.13165 20.4686 2.42966 19.683C-1.71453 14.4062 0.447367 10.7732 1.61485 9.25768C5.75645 4.51487 10.0656 6.15177 11.7686 7.58628L28.2528 22.1483C36.8187 21.821 54.5531 21.1387 56.9634 21.0281C59.9154 20.9861 61.8453 20.6565 63.014 23.8842C63.9848 26.5652 61.9642 28.0745 60.8235 28.8305L44.0627 39.3375C45.0747 40.522 47.2977 43.1452 48.204 44.0103C50.4448 46.7903 54.15 48.0257 58.501 49.1729C62.8521 50.3201 63.2998 52.2228 63.3558 52.9923C63.4117 53.7618 63.6636 57.5393 58.501 57.7911C53.3385 58.0429 51.6177 61.5686 51.156 65.9756C50.7866 69.5013 48.3625 70.0562 47.1966 69.893C44.3286 69.7951 42.6217 64.0729 42.3992 63.1807C41.7387 59.1598 39.6109 56.3835 38.6297 55.498Z" fill="#69DC8A"/>
<path d="M42.5579 51.5703L37.0643 46.5043C34.5228 50.3077 29.1432 59.1031 27.3548 61.9779C24.9296 65.8764 23.3435 65.4376 22.2988 65.4376C19.2235 65.3875 18.6078 62.0322 18.6844 60.3608L19.3112 30.2129C15.2859 25.721 7.05987 16.5409 6.35788 15.7553C2.21369 10.4785 4.37559 6.84544 5.54307 5.32995C9.68468 0.587136 13.9938 2.22404 15.6968 3.65855L32.181 18.2206C40.7469 17.8933 58.4813 17.211 60.8916 17.1004C63.8436 17.0584 65.7735 16.7288 66.9422 19.9564C67.913 22.6375 65.8924 24.1468 64.7517 24.9028L47.991 35.4097C49.0029 36.5943 51.2259 39.2175 52.1322 40.0826C54.373 42.8626 58.0782 44.0979 62.4293 45.2452C66.7803 46.3924 67.228 48.2951 67.284 49.0646C67.34 49.8341 67.5918 53.6115 62.4293 53.8634C57.2667 54.1152 55.5459 57.6408 55.0842 62.0479C54.7148 65.5735 52.2907 66.1285 51.1249 65.9653C48.2568 65.8673 46.5499 60.1452 46.3274 59.2529C45.6669 55.2321 43.5392 52.4558 42.5579 51.5703Z" stroke="black" stroke-width="3" stroke-linejoin="round"/>
<path d="M32.9971 83.459L58.1669 107.319M54.3356 75.9905L56.096 77.6291M60.2667 81.9453L63.6615 85.1946M68.5112 90.1413L71.9545 93.5845M76.3192 97.9977L79.9564 101.635M84.2241 105.951L86.3095 107.988M72.3764 65.0303L115.878 108.095" stroke="black" stroke-width="3" stroke-linejoin="round"/>
</svg>
