<svg width="117" height="109" viewBox="0 0 117 109" fill="none" xmlns="http://www.w3.org/2000/svg">
<path d="M38.6297 55.1943L33.1361 50.1283C30.5946 53.9317 25.215 62.7271 23.4266 65.602C21.0013 69.5004 19.4152 69.0617 18.3706 69.0617C15.2952 69.0115 14.6796 65.6562 14.7562 63.9848L15.383 33.8369C11.3577 29.345 3.13165 20.1649 2.42966 19.3793C-1.71453 14.1025 0.447367 10.4695 1.61485 8.95397C5.75645 4.21116 10.0656 5.84806 11.7686 7.28257L28.2528 21.8446C36.8187 21.5173 54.5531 20.835 56.9634 20.7244C59.9154 20.6824 61.8453 20.3528 63.014 23.5805C63.9848 26.2615 61.9642 27.7708 60.8235 28.5268L44.0627 39.0338C45.0747 40.2183 47.2977 42.8415 48.204 43.7066C50.4448 46.4866 54.15 47.7219 58.501 48.8692C62.8521 50.0164 63.2998 51.9191 63.3558 52.6886C63.4117 53.4581 63.6636 57.2356 58.501 57.4874C53.3385 57.7392 51.6177 61.2649 51.156 65.6719C50.7866 69.1975 48.3625 69.7525 47.1966 69.5893C44.3286 69.4913 42.6217 63.7692 42.3992 62.8769C41.7387 58.8561 39.6109 56.0798 38.6297 55.1943Z" fill="#41C2F4"/>
<path d="M42.5579 51.2661L37.0643 46.2001C34.5228 50.0035 29.1432 58.7989 27.3548 61.6737C24.9296 65.5722 23.3435 65.1334 22.2988 65.1334C19.2235 65.0833 18.6078 61.728 18.6844 60.0566L19.3112 29.9087C15.2859 25.4168 7.05987 16.2367 6.35788 15.4511C2.21369 10.1743 4.37559 6.54124 5.54307 5.02575C9.68468 0.282937 13.9938 1.91984 15.6968 3.35435L32.181 17.9164C40.7469 17.5891 58.4813 16.9068 60.8916 16.7962C63.8436 16.7542 65.7735 16.4246 66.9422 19.6522C67.913 22.3333 65.8924 23.8426 64.7517 24.5986L47.991 35.1055C49.0029 36.2901 51.2259 38.9133 52.1322 39.7784C54.373 42.5584 58.0782 43.7937 62.4293 44.941C66.7803 46.0882 67.228 47.9909 67.284 48.7604C67.34 49.5299 67.5918 53.3073 62.4293 53.5592C57.2667 53.811 55.5459 57.3366 55.0842 61.7437C54.7148 65.2693 52.2907 65.8243 51.1249 65.6611C48.2568 65.5631 46.5499 59.841 46.3274 58.9487C45.6669 54.9279 43.5392 52.1516 42.5579 51.2661Z" stroke="black" stroke-width="3" stroke-linejoin="round"/>
<path d="M32.9971 83.1553L58.1669 107.016M54.3356 75.6868L56.096 77.3254M60.2667 81.6416L63.6615 84.8909M68.5112 89.8376L71.9545 93.2808M76.3192 97.694L79.9564 101.331M84.2241 105.647L86.3095 107.684M72.3764 64.7266L115.878 107.792" stroke="black" stroke-width="3" stroke-linejoin="round"/>
</svg>
