<svg width="81" height="80" viewBox="0 0 81 80" fill="none" xmlns="http://www.w3.org/2000/svg">
<path d="M61.6463 5.92818C68.3315 5.74627 70.0503 10.7413 70.0741 13.2616V23.3615C73.7803 23.1083 74.7228 25.6409 74.7308 26.3491V36.1318C74.7308 39.6621 71.8233 39.4791 70.0741 39.2283V67.4359C70.0741 69.4216 69.5023 70.6909 68.6257 71.4966V76.7962C68.6257 77.9412 68.7282 79.2661 65.7022 79.1679H58.5664C57.8781 79.1816 56.7263 78.9839 56.7263 77.0211V72.848H18.8758C18.9106 73.2856 18.9594 74.6449 18.8758 76.5816C18.7733 78.9556 17.8781 79.1831 17.3903 79.1831H11.1434C8.09724 79.2783 7.93064 78.017 7.84013 77.1563V71.5689C6.25136 70.3746 5.65281 68.626 5.5674 67.5644V39.2283C1.56475 40.2071 0.693946 37.5718 0.758875 36.1318C0.73707 33.7908 0.706545 28.5568 0.758875 26.3491C0.811205 24.1413 3.98637 23.4375 5.5674 23.3615V15.0947C5.74006 6.49569 10.1481 5.9284 13.4237 5.92818C26.7124 6.00397 54.9611 6.11009 61.6463 5.92818Z" fill="#41C2F4"/>
<circle cx="17.1443" cy="62.2786" r="5.92262" fill="#41C2F4"/>
<circle cx="58.9055" cy="62.2786" r="5.92262" fill="#41C2F4"/>
<path d="M12.8401 67.5689C11.2514 66.3746 10.6528 64.626 10.5674 63.5644V35.2283M12.8401 67.5689C13.7732 68.2702 15.0477 68.7804 16.7603 68.848C17.8532 68.848 20.4062 68.848 23.8758 68.848M12.8401 67.5689V73.1563C12.9306 74.017 13.0972 75.2783 16.1434 75.1831C16.9452 75.1831 20.7532 75.1831 22.3903 75.1831C22.8781 75.1831 23.7733 74.9556 23.8758 72.5816C23.9594 70.6449 23.9106 69.2856 23.8758 68.848M23.8758 68.848C33.349 68.848 49.6548 68.848 61.7263 68.848M73.6257 67.4966C72.3869 68.6353 70.5393 68.848 68.8365 68.848C66.7376 68.848 64.3304 68.848 61.7263 68.848M73.6257 67.4966C74.5023 66.6909 75.0741 65.4216 75.0741 63.4359V35.2283M73.6257 67.4966V72.7962C73.6257 73.9412 73.7282 75.2661 70.7022 75.1679C67.5616 75.1679 64.5138 75.1679 63.5664 75.1679C62.8781 75.1816 61.7263 74.9839 61.7263 73.0211C61.7263 70.8947 61.7263 69.353 61.7263 68.848M75.0741 35.2283C76.8233 35.4791 79.7308 35.6621 79.7308 32.1318C79.7308 30.2332 79.7308 25.2121 79.7308 22.3491C79.7228 21.6409 78.7803 19.1083 75.0741 19.3615M75.0741 35.2283V19.3615M75.0741 19.3615V9.26156C75.0503 6.7413 73.3315 1.74627 66.6463 1.92818C59.9611 2.11009 31.7124 2.00397 18.4237 1.92818C15.1481 1.9284 10.7401 2.49569 10.5674 11.0947V19.3615M10.5674 19.3615C8.98637 19.4375 5.8112 20.1413 5.75887 22.3491C5.70654 24.5568 5.73707 29.7908 5.75887 32.1318C5.69395 33.5718 6.56475 36.2071 10.5674 35.2283M10.5674 19.3615V35.2283M26.0065 8.73784C26.0065 9.81821 26.1481 12.041 28.6441 12.2751H59.1296C59.9679 12.2751 61.0942 11.8565 61.1364 9.18777C61.0249 7.60475 61.2742 5.94282 58.1847 5.98882H28.6441C27.7649 5.96372 26.2863 6.40048 26.0065 8.73784ZM21.0667 16.9488H64.7016C66.2063 16.736 69.17 17.6692 68.9876 23.1042C68.9876 25.2563 68.9876 35.5821 68.9876 40.4761C68.9876 42.239 68.0688 44.6555 61.3877 44.3179H20.5039C18.9922 44.237 16.6982 43.8422 16.8473 39.9333V20.0943C16.8473 18.8019 17.2186 16.9488 21.0667 16.9488Z" stroke="black" stroke-width="2.5"/>
<circle cx="22.1443" cy="58.2786" r="4.67262" stroke="black" stroke-width="2.5"/>
<circle cx="63.9055" cy="58.2786" r="4.67262" stroke="black" stroke-width="2.5"/>
</svg>
