<svg width="81" height="79" viewBox="0 0 81 79" fill="none" xmlns="http://www.w3.org/2000/svg">
<path d="M61.6463 5.72554C68.3315 5.54363 70.0503 10.5387 70.0741 13.0589V23.1588C73.7803 22.9057 74.7228 25.4383 74.7308 26.1465V35.9292C74.7308 39.4595 71.8233 39.2765 70.0741 39.0257V67.2333C70.0741 69.2189 69.5023 70.4883 68.6257 71.294V76.5935C68.6257 77.7385 68.7282 79.0634 65.7022 78.9653H58.5664C57.8781 78.9789 56.7263 78.7813 56.7263 76.8184V72.6454H18.8758C18.9106 73.0829 18.9594 74.4422 18.8758 76.3789C18.7733 78.753 17.8781 78.9805 17.3903 78.9805H11.1434C8.09724 79.0757 7.93064 77.8144 7.84013 76.9537V71.3662C6.25136 70.172 5.65281 68.4234 5.5674 67.3618V39.0257C1.56475 40.0045 0.693946 37.3692 0.758875 35.9292C0.73707 33.5882 0.706545 28.3542 0.758875 26.1465C0.811205 23.9387 3.98637 23.2348 5.5674 23.1588V14.8921C5.74006 6.29305 10.1481 5.72576 13.4237 5.72554C26.7124 5.80134 54.9611 5.90745 61.6463 5.72554Z" fill="#69DC8A" fill-opacity="0.97"/>
<circle cx="17.1443" cy="62.0759" r="5.92262" fill="#69DC8A" fill-opacity="0.97"/>
<circle cx="58.9055" cy="62.0759" r="5.92262" fill="#69DC8A" fill-opacity="0.97"/>
<path d="M12.8401 67.3662C11.2514 66.172 10.6528 64.4234 10.5674 63.3618V35.0257M12.8401 67.3662C13.7732 68.0676 15.0477 68.5778 16.7603 68.6454C17.8532 68.6454 20.4062 68.6454 23.8758 68.6454M12.8401 67.3662V72.9537C12.9306 73.8144 13.0972 75.0757 16.1434 74.9805C16.9452 74.9805 20.7532 74.9805 22.3903 74.9805C22.8781 74.9805 23.7733 74.753 23.8758 72.3789C23.9594 70.4422 23.9106 69.0829 23.8758 68.6454M23.8758 68.6454C33.349 68.6454 49.6548 68.6454 61.7263 68.6454M73.6257 67.294C72.3869 68.4326 70.5393 68.6454 68.8365 68.6454C66.7376 68.6454 64.3304 68.6454 61.7263 68.6454M73.6257 67.294C74.5023 66.4883 75.0741 65.2189 75.0741 63.2333V35.0257M73.6257 67.294V72.5935C73.6257 73.7385 73.7282 75.0634 70.7022 74.9653C67.5616 74.9653 64.5138 74.9653 63.5664 74.9653C62.8781 74.9789 61.7263 74.7813 61.7263 72.8184C61.7263 70.692 61.7263 69.1504 61.7263 68.6454M75.0741 35.0257C76.8233 35.2765 79.7308 35.4595 79.7308 31.9292C79.7308 30.0306 79.7308 25.0094 79.7308 22.1465C79.7228 21.4383 78.7803 18.9057 75.0741 19.1588M75.0741 35.0257V19.1588M75.0741 19.1588V9.05892C75.0503 6.53866 73.3315 1.54363 66.6463 1.72554C59.9611 1.90745 31.7124 1.80134 18.4237 1.72554C15.1481 1.72576 10.7401 2.29305 10.5674 10.8921V19.1588M10.5674 19.1588C8.98637 19.2348 5.8112 19.9387 5.75887 22.1465C5.70654 24.3542 5.73707 29.5882 5.75887 31.9292C5.69395 33.3692 6.56475 36.0045 10.5674 35.0257M10.5674 19.1588V35.0257M26.0065 8.53521C26.0065 9.61558 26.1481 11.8384 28.6441 12.0724H59.1296C59.9679 12.0724 61.0942 11.6539 61.1364 8.98513C61.0249 7.40211 61.2742 5.74019 58.1847 5.78618H28.6441C27.7649 5.76108 26.2863 6.19784 26.0065 8.53521ZM21.0667 16.7461H64.7016C66.2063 16.5333 69.17 17.4665 68.9876 22.9015C68.9876 25.0536 68.9876 35.3795 68.9876 40.2734C68.9876 42.0363 68.0688 44.4529 61.3877 44.1153H20.5039C18.9922 44.0344 16.6982 43.6396 16.8473 39.7307V19.8916C16.8473 18.5993 17.2186 16.7461 21.0667 16.7461Z" stroke="black" stroke-width="2.5"/>
<circle cx="22.1443" cy="58.0759" r="4.67262" stroke="black" stroke-width="2.5"/>
<circle cx="63.9055" cy="58.0759" r="4.67262" stroke="black" stroke-width="2.5"/>
</svg>
