<svg width="83" height="67" viewBox="0 0 83 67" fill="none" xmlns="http://www.w3.org/2000/svg">
<path d="M73.4046 64.7966H11.0347C4.46944 64.7966 2.82812 58.7752 2.82812 55.7645V22.5101C2.82812 12.9853 6.93141 10.6041 10.214 11.0147V7.73031H22.5239V11.0147H33.6027C34.0131 3.62481 38.1163 2.8037 40.5783 2.80371H59.0431C64.9518 2.80371 66.0187 7.7303 66.0187 11.0147H73.4046C79.9698 11.6716 81.064 17.0361 80.7905 19.6362V54.9434C80.7905 63.1544 75.8665 64.9334 73.4046 64.7966Z" stroke="black" stroke-width="3"/>
<path d="M49.3281 57.8037C61.2022 57.8037 70.8281 48.1778 70.8281 36.3037C70.8281 24.4296 61.2022 14.8037 49.3281 14.8037C37.454 14.8037 27.8281 24.4296 27.8281 36.3037C27.8281 48.1778 37.454 57.8037 49.3281 57.8037Z" stroke="black" stroke-opacity="0.97" stroke-width="2"/>
<path d="M49.8281 33.9137L47.569 31.8037L45.322 33.8037M43.0751 35.8037L45.322 33.8037M45.322 33.8037L43.2998 32.4704L40.8281 34.6926" stroke="black" stroke-linecap="round" stroke-linejoin="round"/>
<path d="M53.2987 26.8037L51.6517 27.9244M53.2987 26.8037L54.9458 27.9244M53.2987 26.8037V29.4934M53.2987 29.4934L50.7105 30.6141M53.2987 29.4934L55.6517 30.1658M53.2987 29.4934V31.7347M53.2987 31.7347V34.2003M53.2987 31.7347L50.2527 33.4146L48.8281 34.2003M53.534 31.7347L56.8281 33.0796M53.2987 34.2003L49.7693 36.4416M53.2987 34.2003L56.8281 35.321M53.2987 34.2003V36.4416M51.1811 38.0106L53.2987 36.8899V36.4416M53.2987 36.4416L56.8281 38.0106M53.2987 36.4416V39.8037" stroke="black" stroke-opacity="0.97" stroke-linecap="round" stroke-linejoin="round"/>
<path d="M39.1481 37.8971C40.7615 37.588 44.6481 38.1052 45.9681 38.5925C47.0862 39.0053 50.3681 40.2153 51.2481 40.4471C51.7708 40.5848 52.4619 40.6852 53.2281 40.7034C55.9179 40.7673 59.3881 39.5198 59.8281 39.0562M37.8281 44.3882C39.4415 44.0791 43.7534 44.6947 44.6481 44.8518C45.9681 45.0836 49.2681 46.2665 50.1481 46.4983C52.5056 47.1193 57.4081 46.7064 58.2881 46.0347M38.4881 40.9108C40.1015 40.6017 43.5387 41.187 44.4281 41.3744C45.5281 41.6063 48.6081 42.9972 49.4881 43.229C50.3681 43.4609 51.1419 43.6745 51.9081 43.6927C54.5979 43.7566 58.2881 43.4609 59.3881 42.5336" stroke="black" stroke-linecap="round" stroke-linejoin="round"/>
<circle cx="46.3281" cy="26.3037" r="1" stroke="black"/>
<path d="M73.4046 10.0147H66.9871C66.8882 8.4734 66.534 6.68189 65.5995 5.15545C64.407 3.2074 62.3349 1.80371 59.0431 1.80371H40.5783C39.2545 1.80371 37.336 2.02045 35.6893 3.36292C34.1594 4.61018 33.0243 6.69474 32.679 10.0147H23.5239V7.73031V6.73031H22.5239H10.214H9.21403V7.73031V9.97833C7.5805 10.0552 5.87848 10.7579 4.51984 12.3989C2.87622 14.3841 1.82812 17.6281 1.82812 22.5101V55.7645C1.82812 57.4117 2.26962 59.8736 3.6326 61.957C5.03086 64.0944 7.38394 65.7966 11.0347 65.7966H73.3782C74.8499 65.8705 76.9584 65.3801 78.7076 63.7273C80.4908 62.0422 81.7905 59.256 81.7905 54.9434V19.6867C81.9339 18.2172 81.6986 16.0267 80.5172 14.0783C79.2897 12.0537 77.0907 10.3785 73.5041 10.0197L73.4545 10.0147H73.4046Z" stroke="black" stroke-opacity="0.97" stroke-width="2"/>
<circle cx="12.8281" cy="20.8037" r="4" stroke="black" stroke-opacity="0.97" stroke-width="2"/>
</svg>
