<svg width="177" height="106" viewBox="0 0 177 106" fill="none" xmlns="http://www.w3.org/2000/svg">
<path d="M164.239 94.0481C149.757 94.0481 141.801 94.0481 92.4382 94.0481C61.0252 92.9263 95.5913 95.17 0.442383 92.9263C0.442383 79.119 32.1796 60.8262 74.5955 60.8262C117.011 60.8262 162.098 81.7073 164.239 94.0481Z" fill="#69DC8A"/>
<path d="M45.8707 4.73242L38.4794 9.77593M45.8707 4.73242L53.262 9.77593M45.8707 4.73242V16.8368M45.8707 16.8368L34.2558 21.8803M45.8707 16.8368L56.4297 19.8629M45.8707 16.8368V26.9238M45.8707 26.9238V38.0195M45.8707 26.9238L32.2014 34.4839L25.8086 38.0195M46.9266 26.9238L61.7092 32.976M45.8707 38.0195L30.0322 48.1066M45.8707 38.0195L61.7092 43.0631M45.8707 38.0195V48.1066M36.3676 55.1675L45.8707 50.124V48.1066M45.8707 48.1066L61.7092 55.1675M45.8707 48.1066V63.2371" stroke="#69DC8A" stroke-width="4.48757" stroke-linecap="round" stroke-linejoin="round"/>
<path d="M175.742 91.2683C141.554 66.0409 60.7806 29.7641 11.1873 86.4761" stroke="black" stroke-width="3.21234"/>
<line x1="55.6347" y1="91.8049" x2="69.3236" y2="57.2411" stroke="black" stroke-width="3.21234" stroke-linecap="round"/>
<line x1="42.1728" y1="91.9621" x2="55.0355" y2="59.4845" stroke="black" stroke-width="3.21234" stroke-linecap="round"/>
<line x1="30.9536" y1="90.1916" x2="41.3376" y2="63.9724" stroke="black" stroke-width="3.21234" stroke-linecap="round"/>
<line x1="69.0976" y1="91.8049" x2="82.7865" y2="57.2411" stroke="black" stroke-width="3.21234" stroke-linecap="round"/>
<line x1="81.6855" y1="92.4553" x2="94.9412" y2="58.9854" stroke="black" stroke-width="3.21234" stroke-linecap="round"/>
<line x1="96.0229" y1="92.9553" x2="108.886" y2="60.4776" stroke="black" stroke-width="3.21234" stroke-linecap="round"/>
<line x1="109.486" y1="92.9553" x2="120.696" y2="64.6499" stroke="black" stroke-width="3.21234" stroke-linecap="round"/>
<line x1="120.705" y1="92.593" x2="130.263" y2="68.4599" stroke="black" stroke-width="3.21234" stroke-linecap="round"/>
<line x1="131.923" y1="92.9084" x2="139.829" y2="72.9476" stroke="black" stroke-width="3.21234" stroke-linecap="round"/>
<line x1="143.143" y1="93.2239" x2="149.396" y2="77.4353" stroke="black" stroke-width="3.21234" stroke-linecap="round"/>
<line x1="152.118" y1="93.3821" x2="157.545" y2="79.6796" stroke="black" stroke-width="3.21234" stroke-linecap="round"/>
<path d="M49.6739 2.48828L42.2826 7.53179M49.6739 2.48828L57.0652 7.53179M49.6739 2.48828V14.5927M49.6739 14.5927L38.059 19.6362M49.6739 14.5927L60.2329 17.6188M49.6739 14.5927V24.6797M49.6739 24.6797V35.7754M49.6739 24.6797L36.0046 32.2397L29.6118 35.7754M50.7298 24.6797L65.5124 30.7319M49.6739 35.7754L33.8354 45.8624M49.6739 35.7754L65.5124 40.8189M49.6739 35.7754V45.8624M40.1708 52.9233L49.6739 47.8798V45.8624M49.6739 45.8624L65.5124 52.9233M49.6739 45.8624V60.9929" stroke="black" stroke-width="4.48757" stroke-linecap="round" stroke-linejoin="round"/>
</svg>
