<svg width="177" height="106" viewBox="0 0 177 106" fill="none" xmlns="http://www.w3.org/2000/svg">
<path d="M163.881 94.1336C149.4 94.1336 141.444 94.1336 92.0808 94.1336C60.6678 93.0117 95.2339 95.2555 0.0849609 93.0117C0.0849609 79.2044 31.8222 60.9116 74.2381 60.9116C116.654 60.9116 161.741 81.7928 163.881 94.1336Z" fill="#41C2F4"/>
<path d="M45.5133 4.81738L38.122 9.86089M45.5133 4.81738L52.9046 9.86089M45.5133 4.81738V16.9218M45.5133 16.9218L33.8984 21.9653M45.5133 16.9218L56.0723 19.9479M45.5133 16.9218V27.0088M45.5133 27.0088V38.1045M45.5133 27.0088L31.844 34.5688L25.4512 38.1045M46.5692 27.0088L61.3517 33.061M45.5133 38.1045L29.6748 48.1915M45.5133 38.1045L61.3517 43.148M45.5133 38.1045V48.1915M36.0102 55.2524L45.5133 50.2089V48.1915M45.5133 48.1915L61.3517 55.2524M45.5133 48.1915V63.322" stroke="#41C2F4" stroke-width="4.48757" stroke-linecap="round" stroke-linejoin="round"/>
<path d="M175.385 91.3537C141.197 66.1263 60.4232 29.8496 10.8299 86.5616" stroke="black" stroke-width="3.21234"/>
<line x1="55.2773" y1="91.8904" x2="68.9662" y2="57.3266" stroke="black" stroke-width="3.21234" stroke-linecap="round"/>
<line x1="41.8154" y1="92.0476" x2="54.6781" y2="59.5699" stroke="black" stroke-width="3.21234" stroke-linecap="round"/>
<line x1="30.5962" y1="90.2776" x2="40.9802" y2="64.0583" stroke="black" stroke-width="3.21234" stroke-linecap="round"/>
<line x1="68.7402" y1="91.8904" x2="82.4291" y2="57.3266" stroke="black" stroke-width="3.21234" stroke-linecap="round"/>
<line x1="81.3281" y1="92.5412" x2="94.5837" y2="59.0713" stroke="black" stroke-width="3.21234" stroke-linecap="round"/>
<line x1="95.6655" y1="93.0403" x2="108.528" y2="60.5626" stroke="black" stroke-width="3.21234" stroke-linecap="round"/>
<line x1="109.128" y1="93.0403" x2="120.339" y2="64.7349" stroke="black" stroke-width="3.21234" stroke-linecap="round"/>
<line x1="120.348" y1="92.6789" x2="129.905" y2="68.5458" stroke="black" stroke-width="3.21234" stroke-linecap="round"/>
<line x1="131.566" y1="92.9939" x2="139.471" y2="73.033" stroke="black" stroke-width="3.21234" stroke-linecap="round"/>
<line x1="142.785" y1="93.3098" x2="149.038" y2="77.5212" stroke="black" stroke-width="3.21234" stroke-linecap="round"/>
<line x1="151.761" y1="93.467" x2="157.188" y2="79.7646" stroke="black" stroke-width="3.21234" stroke-linecap="round"/>
<path d="M49.3165 2.57373L41.9252 7.61723M49.3165 2.57373L56.7078 7.61723M49.3165 2.57373V14.6781M49.3165 14.6781L37.7016 19.7216M49.3165 14.6781L59.8755 17.7042M49.3165 14.6781V24.7651M49.3165 24.7651V35.8609M49.3165 24.7651L35.6472 32.3252L29.2544 35.8609M50.3724 24.7651L65.155 30.8174M49.3165 35.8609L33.478 45.9479M49.3165 35.8609L65.155 40.9044M49.3165 35.8609V45.9479M39.8134 53.0088L49.3165 47.9653V45.9479M49.3165 45.9479L65.155 53.0088M49.3165 45.9479V61.0784" stroke="black" stroke-width="4.48757" stroke-linecap="round" stroke-linejoin="round"/>
</svg>
