<svg width="69" height="74" viewBox="0 0 69 74" fill="none" xmlns="http://www.w3.org/2000/svg">
<path d="M10.9908 6.31934H53.0861C56.6021 6.31934 63.0867 10.2369 63.1841 18.6073C63.2814 26.9776 63.2246 42.4237 63.1841 49.1004C64.6052 71.6414 58.0542 72.8456 51.4427 73.0759C45.7015 73.0897 29.3286 73.1089 13.7039 73.0759C-1.92074 73.043 0.518458 56.5996 0.518468 47.8643C0.423206 36.8537 0.734597 24.171 0.734597 19.0344C1.03518 14.7122 2.39552 6.70417 10.9908 6.31934Z" fill="#69DC8A"/>
<path d="M41.0844 39.1956C34.3194 52.8131 24.2003 46.4135 19.9864 41.5115C15.9258 38.1208 11.1327 29.419 24.4446 21.7374C29.9003 19.2278 43.4304 18.7368 48.7224 21.7374C44.1942 26.593 43.1166 35.4191 41.0844 39.1956Z" fill="white"/>
<path d="M15.8066 51.42C15.7111 49.414 16.696 45.7921 19.9864 41.5115M36.9381 27.4113C28.4035 31.8994 23.1541 37.3904 19.9864 41.5115M19.9864 41.5115C24.2003 46.4135 34.3194 52.8131 41.0844 39.1956C43.1166 35.4191 44.1942 26.593 48.7224 21.7374C43.4304 18.7368 29.9003 19.2278 24.4446 21.7374C11.1327 29.419 15.9258 38.1208 19.9864 41.5115Z" stroke="white" stroke-width="1.64707" stroke-linecap="round" stroke-linejoin="round"/>
<path d="M67.3017 44.6297C67.3423 37.953 67.3991 22.5069 67.3017 14.1366C67.2044 5.76617 60.7198 1.84863 57.2038 1.84863H15.1084C6.51319 2.23347 5.15286 10.2415 4.85227 14.5637C4.85227 19.7003 4.54088 32.383 4.63614 43.3936M67.3017 44.6297C67.3017 49.024 65.0764 57.7327 53.6693 57.7327C41.0443 57.7327 24.5104 57.7327 17.8215 57.7327C13.3577 57.5404 4.72994 54.2347 4.63614 43.3936M67.3017 44.6297C68.7229 67.1707 62.1719 68.3749 55.5603 68.6052C49.8192 68.619 33.4463 68.6382 17.8216 68.6052C2.19693 68.5723 4.63613 52.1289 4.63614 43.3936" stroke="black" stroke-width="3" stroke-linejoin="round"/>
<path d="M19.9238 46.9493C19.8283 44.9432 20.8132 41.3214 24.1035 37.0408M41.0553 22.9406C32.5207 27.4287 27.2713 32.9197 24.1035 37.0408M24.1035 37.0408C28.3175 41.9428 38.4366 48.3424 45.2016 34.7249C47.2338 30.9484 48.3114 22.1223 52.8396 17.2667C47.5476 14.2661 34.0175 14.7571 28.5618 17.2667C15.2499 24.9483 20.043 33.6501 24.1035 37.0408Z" stroke="black" stroke-width="1.64707" stroke-linecap="round" stroke-linejoin="round"/>
</svg>
