<svg width="52" height="71" viewBox="0 0 52 71" fill="none" xmlns="http://www.w3.org/2000/svg">
<line y1="-1.61307" x2="42.6336" y2="-1.61307" transform="matrix(0.00100925 -0.999999 0.999997 0.0025946 11.5571 70.5264)" stroke="white" stroke-width="3.22613"/>
<line x1="26.2507" y1="70.5472" x2="26.2653" y2="56.0438" stroke="white" stroke-width="3.22613"/>
<line x1="43.4577" y1="70.5648" x2="43.4926" y2="35.9796" stroke="white" stroke-width="3.22613"/>
<line x1="10.1794" y1="12.5174" x2="10.1918" y2="0.245271" stroke="white" stroke-width="3.22613"/>
<line x1="26.282" y1="40.4251" x2="26.3225" y2="0.261749" stroke="white" stroke-width="3.22613"/>
<line x1="43.5061" y1="22.5921" x2="43.5286" y2="0.279136" stroke="white" stroke-width="3.22613"/>
<path d="M9.64123 13.0144C13.5442 13.0184 16.6281 16.0874 16.6244 19.7758C16.6206 23.4642 13.5306 26.527 9.6276 26.5231C5.72463 26.5191 2.64074 23.4501 2.64446 19.7617C2.64818 16.0733 5.73826 13.0105 9.64123 13.0144Z" stroke="white" stroke-width="3.22613"/>
<path d="M42.431 21.9726C46.6249 21.9768 49.9553 25.29 49.9513 29.2923C49.9472 33.2946 46.6102 36.6011 42.4163 36.5968C38.2224 36.5926 34.892 33.2794 34.896 29.2771C34.9 25.2748 38.2371 21.9684 42.431 21.9726Z" stroke="white" stroke-width="3.22613"/>
<path d="M26.2811 40.9223C30.475 40.9265 33.8054 44.2397 33.8014 48.242C33.7973 52.2443 30.4603 55.5508 26.2664 55.5466C22.0725 55.5423 18.7421 52.2291 18.7461 48.2268C18.7501 44.2245 22.0872 40.9181 26.2811 40.9223Z" stroke="white" stroke-width="3.22613"/>
</svg>
