<svg width="94" height="81" viewBox="0 0 94 81" fill="none" xmlns="http://www.w3.org/2000/svg">
<path d="M75.7065 23.5752L69.0019 28.1501M75.7065 23.5752L82.4111 28.1501M75.7065 23.5752V34.555M75.7065 34.555L65.1707 39.13M75.7065 34.555L85.2845 37.3M75.7065 34.555V43.7049M75.7065 43.7049V53.7698M75.7065 43.7049L63.3072 50.5626L57.5083 53.7698M76.6643 43.7049L90.0735 49.1948M75.7065 53.7698L61.3395 62.9197M75.7065 53.7698L90.0735 58.3447M75.7065 53.7698V62.9197M67.0863 69.3246L75.7065 64.7496V62.9197M75.7065 62.9197L90.0735 69.3246M75.7065 62.9197V76.6445" stroke="#69DC8A" stroke-width="2.41224" stroke-linecap="round" stroke-linejoin="round"/>
<path d="M78.1191 22.3691L71.4145 26.9441M78.1191 22.3691L84.8237 26.9441M78.1191 22.3691V33.349M78.1191 33.349L67.5833 37.9239M78.1191 33.349L87.6971 36.094M78.1191 33.349V42.4989M78.1191 42.4989V52.5637M78.1191 42.4989L65.7198 49.3565L59.9209 52.5637M79.0769 42.4989L92.4861 47.9888M78.1191 52.5637L63.7521 61.7136M78.1191 52.5637L92.4861 57.1387M78.1191 52.5637V61.7136M69.4989 68.1185L78.1191 63.5436V61.7136M78.1191 61.7136L92.4861 68.1185M78.1191 61.7136V75.4384" stroke="black" stroke-width="2.41224" stroke-linecap="round" stroke-linejoin="round"/>
<path d="M16.7122 9.81096C16.7122 14.1993 13.1548 17.7567 8.76652 17.7567C4.37822 17.7567 0.820801 14.1993 0.820801 9.81096C0.820801 5.42266 4.37822 1.86523 8.76652 1.86523C13.1548 1.86523 16.7122 5.42266 16.7122 9.81096Z" fill="#69DC8A"/>
<path d="M50.1999 6.10254L41.039 12.4043M50.1999 6.10254L59.3609 12.4043M50.1999 6.10254V21.2268M50.1999 21.2268L35.8041 27.5286M50.1999 21.2268L63.287 25.0079M50.1999 21.2268V33.8304M50.1999 33.8304V47.6943M50.1999 33.8304L33.2579 43.2765L25.3345 47.6943M51.5086 33.8304L69.8305 41.3925M50.1999 47.6943L30.5693 60.2979M50.1999 47.6943L69.8305 53.9961M50.1999 47.6943V60.2979M38.4215 69.1203L50.1999 62.8186V60.2979M50.1999 60.2979L69.8305 69.1203M50.1999 60.2979V79.2032" stroke="#69DC8A" stroke-width="3" stroke-linecap="round" stroke-linejoin="round"/>
<path d="M18.8304 8.6049C18.8304 12.1648 15.9446 15.0506 12.3847 15.0506C8.82481 15.0506 5.93896 12.1648 5.93896 8.6049C5.93896 5.04503 8.82481 2.15918 12.3847 2.15918C15.9446 2.15918 18.8304 5.04503 18.8304 8.6049Z" stroke="black" stroke-width="3"/>
<path d="M52.612 4.89648L43.4511 11.1983M52.612 4.89648L61.773 11.1983M52.612 4.89648V20.0208M52.612 20.0208L38.2162 26.3225M52.612 20.0208L65.6991 23.8018M52.612 20.0208V32.6243M52.612 32.6243V46.4882M52.612 32.6243L35.67 42.0705L27.7466 46.4882M53.9207 32.6243L72.2426 40.1865M52.612 46.4882L32.9814 59.0918M52.612 46.4882L72.2426 52.79M52.612 46.4882V59.0918M40.8337 67.9143L52.612 61.6125V59.0918M52.612 59.0918L72.2426 67.9143M52.612 59.0918V77.9971" stroke="black" stroke-width="3" stroke-linecap="round" stroke-linejoin="round"/>
</svg>
