<svg width="94" height="81" viewBox="0 0 94 81" fill="none" xmlns="http://www.w3.org/2000/svg">
<path d="M75.7065 23.2715L69.0019 27.8464M75.7065 23.2715L82.4111 27.8464M75.7065 23.2715V34.2513M75.7065 34.2513L65.1707 38.8263M75.7065 34.2513L85.2845 36.9963M75.7065 34.2513V43.4012M75.7065 43.4012V53.4661M75.7065 43.4012L63.3072 50.2589L57.5083 53.4661M76.6643 43.4012L90.0735 48.8911M75.7065 53.4661L61.3395 62.616M75.7065 53.4661L90.0735 58.041M75.7065 53.4661V62.616M67.0863 69.0209L75.7065 64.4459V62.616M75.7065 62.616L90.0735 69.0209M75.7065 62.616V76.3408" stroke="#41C2F4" stroke-width="2.41224" stroke-linecap="round" stroke-linejoin="round"/>
<path d="M78.1191 22.0649L71.4145 26.6399M78.1191 22.0649L84.8237 26.6399M78.1191 22.0649V33.0448M78.1191 33.0448L67.5833 37.6197M78.1191 33.0448L87.6971 35.7898M78.1191 33.0448V42.1947M78.1191 42.1947V52.2595M78.1191 42.1947L65.7198 49.0523L59.9209 52.2595M79.0769 42.1947L92.4861 47.6846M78.1191 52.2595L63.7521 61.4094M78.1191 52.2595L92.4861 56.8345M78.1191 52.2595V61.4094M69.4989 67.8143L78.1191 63.2394V61.4094M78.1191 61.4094L92.4861 67.8143M78.1191 61.4094V75.1342" stroke="black" stroke-width="2.41224" stroke-linecap="round" stroke-linejoin="round"/>
<path d="M16.7122 9.50676C16.7122 13.8951 13.1548 17.4525 8.76652 17.4525C4.37822 17.4525 0.820801 13.8951 0.820801 9.50676C0.820801 5.11846 4.37822 1.56104 8.76652 1.56104C13.1548 1.56104 16.7122 5.11846 16.7122 9.50676Z" fill="#41C2F4"/>
<path d="M50.1999 5.79883L41.039 12.1006M50.1999 5.79883L59.3609 12.1006M50.1999 5.79883V20.9231M50.1999 20.9231L35.8041 27.2249M50.1999 20.9231L63.287 24.7042M50.1999 20.9231V33.5267M50.1999 33.5267V47.3906M50.1999 33.5267L33.2579 42.9728L25.3345 47.3906M51.5086 33.5267L69.8305 41.0888M50.1999 47.3906L30.5693 59.9941M50.1999 47.3906L69.8305 53.6924M50.1999 47.3906V59.9941M38.4215 68.8166L50.1999 62.5149V59.9941M50.1999 59.9941L69.8305 68.8166M50.1999 59.9941V78.8995" stroke="#41C2F4" stroke-width="3" stroke-linecap="round" stroke-linejoin="round"/>
<path d="M18.8304 8.3007C18.8304 11.8606 15.9446 14.7464 12.3847 14.7464C8.82481 14.7464 5.93896 11.8606 5.93896 8.3007C5.93896 4.74083 8.82481 1.85498 12.3847 1.85498C15.9446 1.85498 18.8304 4.74083 18.8304 8.3007Z" stroke="black" stroke-width="3"/>
<path d="M52.612 4.59277L43.4511 10.8946M52.612 4.59277L61.773 10.8946M52.612 4.59277V19.717M52.612 19.717L38.2162 26.0188M52.612 19.717L65.6991 23.4981M52.612 19.717V32.3206M52.612 32.3206V46.1845M52.612 32.3206L35.67 41.7667L27.7466 46.1845M53.9207 32.3206L72.2426 39.8827M52.612 46.1845L32.9814 58.7881M52.612 46.1845L72.2426 52.4863M52.612 46.1845V58.7881M40.8337 67.6106L52.612 61.3088V58.7881M52.612 58.7881L72.2426 67.6106M52.612 58.7881V77.6934" stroke="black" stroke-width="3" stroke-linecap="round" stroke-linejoin="round"/>
</svg>
