<svg width="73" height="93" viewBox="0 0 73 93" fill="none" xmlns="http://www.w3.org/2000/svg">
<path d="M5.99658 23.2941C5.99658 18.9836 9.49095 15.4893 13.8015 15.4893H57.9478C62.2583 15.4893 65.7527 18.9836 65.7527 23.2941V91.8285H5.99658V23.2941Z" fill="#69DC8A"/>
<line x1="2.43549" y1="91.0709" x2="69.3135" y2="91.0709" stroke="#69DC8A" stroke-width="3.12195" stroke-linecap="round"/>
<rect x="19.8032" y="28.0977" width="11" height="11" rx="2" fill="white"/>
<rect x="19.8032" y="43.041" width="11" height="11" rx="2" fill="white"/>
<rect x="19.8032" y="57.7627" width="11" height="11" rx="2" fill="white"/>
<rect x="33.0449" y="28.0977" width="11" height="11" rx="1" fill="white"/>
<rect x="33.0449" y="43.041" width="11" height="11" rx="2" fill="white"/>
<rect x="33.0449" y="57.7627" width="11" height="11" rx="2" fill="white"/>
<rect x="46.2876" y="28.0977" width="11" height="11" rx="2" fill="white"/>
<rect x="46.2876" y="43.041" width="11" height="11" rx="2" fill="white"/>
<rect x="46.2876" y="57.7627" width="11" height="11" rx="2" fill="white"/>
<path d="M28.0156 74.4834C28.0156 73.3788 28.9111 72.4834 30.0156 72.4834H46.3519C47.4565 72.4834 48.3519 73.3788 48.3519 74.4834V86.1441H28.0156V74.4834Z" fill="white"/>
<path d="M31.0574 0.631836L32.1115 3.96336L35.5228 3.96336L32.763 6.02236L33.8172 9.35388L31.0574 7.29489L28.2977 9.35388L29.3518 6.02236L26.5921 3.96336L30.0033 3.96336L31.0574 0.631836Z" fill="#69DC8A"/>
<path d="M39.5452 0.631836L40.5993 3.96336L44.0105 3.96336L41.2508 6.02236L42.3049 9.35388L39.5452 7.29489L36.7855 9.35388L37.8396 6.02236L35.0799 3.96336L38.4911 3.96336L39.5452 0.631836Z" fill="#69DC8A"/>
<path d="M48.0921 0.631836L49.1462 3.96336L52.5574 3.96336L49.7977 6.02236L50.8518 9.35388L48.0921 7.29489L45.3324 9.35388L46.3865 6.02236L43.6268 3.96336L47.038 3.96336L48.0921 0.631836Z" fill="#69DC8A"/>
<path d="M14.5576 20.925C14.5576 17.1668 17.6043 14.1201 21.3625 14.1201H60.3869C64.1451 14.1201 67.1918 17.1668 67.1918 20.925V86.2665H14.5576V20.925Z" stroke="black" stroke-width="2"/>
<line x1="10.4355" y1="86.4859" x2="71.3135" y2="86.4859" stroke="black" stroke-width="3.12195" stroke-linecap="round"/>
<rect x="21.8623" y="27.668" width="10.7073" height="10.7073" rx="1.5" stroke="black"/>
<rect x="21.8623" y="42.498" width="10.7073" height="10.7073" rx="1.5" stroke="black"/>
<rect x="21.8623" y="57.3271" width="10.7073" height="10.7073" rx="1.5" stroke="black"/>
<rect x="35.1304" y="27.668" width="10.7073" height="10.7073" rx="1.5" stroke="black"/>
<rect x="35.1304" y="42.498" width="10.7073" height="10.7073" rx="1.5" stroke="black"/>
<rect x="35.1304" y="57.3271" width="10.7073" height="10.7073" rx="1.5" stroke="black"/>
<rect x="48.3989" y="27.668" width="10.7073" height="10.7073" rx="1.5" stroke="black"/>
<rect x="48.3989" y="42.498" width="10.7073" height="10.7073" rx="1.5" stroke="black"/>
<rect x="48.3989" y="57.3271" width="10.7073" height="10.7073" rx="1.5" stroke="black"/>
<path d="M30.4478 73.6563C30.4478 72.8278 31.1193 72.1562 31.9478 72.1562H49.0209C49.8494 72.1562 50.5209 72.8278 50.5209 73.6562V84.4245H30.4478V73.6563Z" stroke="black"/>
<path d="M31.8991 1.31539L32.6759 3.92336L32.7174 4.06278H32.8629H35.4214L33.3373 5.71459L33.2338 5.79663L33.2715 5.9232L34.0587 8.56618L32.0203 6.95057L31.8991 6.8545L31.7779 6.95057L29.7395 8.56618L30.5267 5.9232L30.5644 5.79663L30.4609 5.71459L28.3769 4.06278H30.9354H31.0808L31.1224 3.92336L31.8991 1.31539Z" stroke="black" stroke-width="0.390244"/>
<path d="M40.4841 1.31539L41.2609 3.92336L41.3024 4.06278H41.4479H44.0064L41.9223 5.71459L41.8188 5.79663L41.8565 5.9232L42.6437 8.56618L40.6053 6.95057L40.4841 6.8545L40.3629 6.95057L38.3245 8.56618L39.1117 5.9232L39.1494 5.79663L39.0459 5.71459L36.9618 4.06278H39.5203H39.6658L39.7073 3.92336L40.4841 1.31539Z" stroke="black" stroke-width="0.390244"/>
<path d="M49.0695 1.31539L49.8463 3.92336L49.8878 4.06278H50.0333H52.5918L50.5077 5.71459L50.4042 5.79663L50.4419 5.9232L51.2291 8.56618L49.1907 6.95057L49.0695 6.8545L48.9483 6.95057L46.9099 8.56618L47.6971 5.9232L47.7348 5.79663L47.6313 5.71459L45.5473 4.06278H48.1058H48.2512L48.2928 3.92336L49.0695 1.31539Z" stroke="black" stroke-width="0.390244"/>
<path d="M27.263 18.1246C27.3691 18.1246 27.4597 18.162 27.5346 18.237C27.6095 18.3056 27.647 18.3962 27.647 18.5086V24.2967C27.647 24.4028 27.6064 24.4933 27.5252 24.5683C27.4503 24.6432 27.3598 24.6807 27.2536 24.6807C27.135 24.6807 27.0413 24.6432 26.9726 24.5683C26.9039 24.4933 26.8696 24.4028 26.8696 24.2967V18.5086C26.8696 18.3962 26.9071 18.3056 26.982 18.237C27.0569 18.162 27.1506 18.1246 27.263 18.1246ZM31.5806 18.1246C31.693 18.1246 31.7836 18.162 31.8522 18.237C31.9272 18.3056 31.9646 18.3962 31.9646 18.5086V24.2967C31.9646 24.4028 31.9272 24.4933 31.8522 24.5683C31.7773 24.6432 31.6837 24.6807 31.5713 24.6807C31.4651 24.6807 31.3746 24.6432 31.2997 24.5683C31.2247 24.4933 31.1873 24.4028 31.1873 24.2967V18.5086C31.1873 18.3962 31.2247 18.3056 31.2997 18.237C31.3808 18.162 31.4745 18.1246 31.5806 18.1246ZM27.2255 20.9812H31.59L31.5806 21.7117H27.1974L27.2255 20.9812ZM39.5203 21.4026C39.5203 21.8834 39.4423 22.3298 39.2862 22.7419C39.1301 23.1478 38.9115 23.5037 38.6306 23.8096C38.3496 24.1156 38.0155 24.3529 37.6284 24.5214C37.2413 24.69 36.8198 24.7743 36.364 24.7743C35.902 24.7743 35.4774 24.69 35.0903 24.5214C34.7094 24.3529 34.3785 24.1156 34.0975 23.8096C33.8165 23.5037 33.598 23.1478 33.4419 22.7419C33.2858 22.3298 33.2077 21.8834 33.2077 21.4026C33.2077 20.9156 33.2858 20.4692 33.4419 20.0633C33.598 19.6512 33.8165 19.2953 34.0975 18.9956C34.3785 18.6896 34.7094 18.4524 35.0903 18.2838C35.4774 18.1152 35.902 18.0309 36.364 18.0309C36.8198 18.0309 37.2413 18.1152 37.6284 18.2838C38.0155 18.4524 38.3496 18.6896 38.6306 18.9956C38.9115 19.2953 39.1301 19.6512 39.2862 20.0633C39.4423 20.4692 39.5203 20.9156 39.5203 21.4026ZM38.7148 21.4026C38.7148 20.8906 38.6118 20.4379 38.4058 20.0446C38.206 19.6512 37.9312 19.3421 37.5816 19.1173C37.2319 18.8926 36.8261 18.7802 36.364 18.7802C35.902 18.7802 35.493 18.8926 35.1371 19.1173C34.7874 19.3421 34.5127 19.6512 34.3129 20.0446C34.1131 20.4379 34.0132 20.8906 34.0132 21.4026C34.0132 21.9084 34.1131 22.3611 34.3129 22.7607C34.5127 23.154 34.7874 23.4631 35.1371 23.6879C35.493 23.9127 35.902 24.0251 36.364 24.0251C36.8261 24.0251 37.2319 23.9127 37.5816 23.6879C37.9312 23.4631 38.206 23.154 38.4058 22.7607C38.6118 22.3611 38.7148 21.9084 38.7148 21.4026ZM42.6124 24.6807C42.5 24.6807 42.4063 24.6432 42.3314 24.5683C42.2565 24.4933 42.219 24.4028 42.219 24.2967V18.5086H43.0151V24.2967C43.0151 24.4028 42.9776 24.4933 42.9027 24.5683C42.8278 24.6432 42.731 24.6807 42.6124 24.6807ZM40.4395 18.8364C40.3333 18.8364 40.2428 18.8052 40.1679 18.7427C40.0992 18.674 40.0648 18.5866 40.0648 18.4805C40.0648 18.3743 40.0992 18.29 40.1679 18.2276C40.2428 18.1589 40.3333 18.1246 40.4395 18.1246H44.7946C44.9008 18.1246 44.9913 18.1589 45.0662 18.2276C45.1411 18.29 45.1786 18.3743 45.1786 18.4805C45.1786 18.5929 45.1411 18.6803 45.0662 18.7427C44.9913 18.8052 44.9008 18.8364 44.7946 18.8364H40.4395ZM46.6802 18.1246H50.0145C50.1206 18.1246 50.2111 18.1589 50.2861 18.2276C50.361 18.2963 50.3985 18.3837 50.3985 18.4898C50.3985 18.596 50.361 18.6834 50.2861 18.7521C50.2111 18.8145 50.1206 18.8457 50.0145 18.8457H46.9987L47.0829 18.6865V21.0561L46.9893 20.9531H49.593C49.6991 20.9531 49.7897 20.9874 49.8646 21.0561C49.9395 21.1248 49.977 21.2122 49.977 21.3183C49.977 21.4245 49.9395 21.5119 49.8646 21.5806C49.7897 21.643 49.6991 21.6742 49.593 21.6742H47.0174L47.0829 21.5899V24.0157L47.0268 23.9501H50.0145C50.1206 23.9501 50.2111 23.9876 50.2861 24.0625C50.361 24.1374 50.3985 24.2217 50.3985 24.3154C50.3985 24.4215 50.361 24.509 50.2861 24.5776C50.2111 24.6463 50.1206 24.6807 50.0145 24.6807H46.6802C46.5741 24.6807 46.4835 24.6432 46.4086 24.5683C46.3399 24.4933 46.3056 24.4028 46.3056 24.2967V18.4992C46.3056 18.3931 46.3399 18.3056 46.4086 18.237C46.4835 18.162 46.5741 18.1246 46.6802 18.1246ZM55.2623 23.9408C55.3684 23.9408 55.4589 23.9782 55.5339 24.0532C55.6088 24.1218 55.6463 24.2092 55.6463 24.3154C55.6463 24.4215 55.6088 24.509 55.5339 24.5776C55.4589 24.6463 55.3684 24.6807 55.2623 24.6807H52.0217C51.9155 24.6807 51.825 24.6432 51.7501 24.5683C51.6814 24.4933 51.647 24.4028 51.647 24.2967V18.4992C51.647 18.3931 51.6845 18.3056 51.7594 18.237C51.8344 18.162 51.928 18.1246 52.0404 18.1246C52.1466 18.1246 52.2371 18.162 52.312 18.237C52.3869 18.3056 52.4244 18.3931 52.4244 18.4992V24.1093L52.2371 23.9408H55.2623Z" fill="black"/>
</svg>
