<svg width="67" height="71" viewBox="0 0 67 71" fill="none" xmlns="http://www.w3.org/2000/svg">
<path d="M65.1152 44.8099C65.1558 38.1332 65.2125 22.6871 65.1152 14.3167C65.0179 5.94634 58.5333 2.02881 55.0172 2.02881H12.9219C4.32667 2.41364 2.96633 10.4217 2.66575 14.7439C2.66575 19.8805 2.35436 32.5632 2.44962 43.5738M65.1152 44.8099C65.1152 49.2042 62.8899 57.9129 51.4827 57.9129C38.8577 57.9129 22.3238 57.9129 15.635 57.9129C11.1712 57.7206 2.54342 54.4149 2.44962 43.5738M65.1152 44.8099C66.5364 67.3509 59.9853 68.555 53.3738 68.7854C47.6327 68.7991 31.2598 68.8184 15.6351 68.7854C0.0104084 68.7524 2.44961 52.3091 2.44962 43.5738" stroke="black" stroke-width="3" stroke-linejoin="round"/>
<path d="M17.7373 47.129C17.6417 45.1229 18.6267 41.5011 21.917 37.2205M38.8688 23.1203C30.3342 27.6084 25.0848 33.0994 21.917 37.2205M21.917 37.2205C26.1309 42.1225 36.25 48.522 43.0151 34.9046C45.0473 31.128 46.1249 22.302 50.6531 17.4464C45.3611 14.4458 31.8309 14.9368 26.3752 17.4464C13.0633 25.128 17.8565 33.8298 21.917 37.2205Z" stroke="black" stroke-width="1.64707" stroke-linecap="round" stroke-linejoin="round"/>
</svg>
