<svg width="118" height="96" viewBox="0 0 118 96" fill="none" xmlns="http://www.w3.org/2000/svg">
<path d="M53.651 91.448C53.651 95.6952 56.3239 95.6952 58.9968 95.6952H106.04C110.317 96.2261 110.317 93.5716 110.317 91.448V65.9649C110.317 61.7177 108.713 61.1868 106.574 61.1868H97.4866L92.6754 54.2852H72.3614L67.0156 61.1868H58.9968C54.2925 61.1868 53.4728 64.3722 53.651 65.9649V91.448Z" fill="#69DC8A"/>
<path d="M74.1886 40.1324C74.1886 46.1235 72.7522 51.7791 70.205 56.7736C59.8146 57.6296 59.1734 61.2728 60.0922 68.8638C53.8196 73.8765 46.1641 76.8107 37.5103 76.8107C17.2535 76.8107 0.832031 60.3893 0.832031 40.1324C0.832031 19.8755 17.2535 3.4541 37.5103 3.4541C57.7672 3.4541 74.1886 19.8755 74.1886 40.1324Z" fill="#69DC8A"/>
<path d="M58.6265 64.3581C58.2727 57.6617 61.0565 57.0428 62.4223 57.2098H64.1571M58.6265 64.3581V74.721H56.9891C52.972 76.203 48.6287 77.0122 44.096 77.0122C23.5255 77.0122 6.85889 60.3456 6.85889 39.7752C6.85889 19.2047 23.5255 2.53809 44.096 2.53809C64.6664 2.53809 81.333 19.2047 81.333 39.7752C81.333 42.7465 80.9853 45.6363 80.3283 48.4062L79.6843 50.2823H76.9118L71.7188 57.2098H64.1571M58.6265 64.3581C57.9508 64.7695 57.6476 65.2163 56.9371 65.5723C53.0696 67.5101 48.7082 68.6039 44.096 68.6039C35.2822 68.6039 27.3843 64.6099 22.0991 58.3637C24.9219 53.0484 30.4474 49.3847 36.8888 49.3847C37.2491 49.3847 37.6095 49.4448 37.9548 49.5499C39.9068 50.1805 41.9488 50.5859 44.096 50.5859C46.2431 50.5859 48.3001 50.1805 50.2371 49.5499C50.5824 49.4448 50.9428 49.3847 51.3031 49.3847C56.4945 49.3847 61.0909 52.4232 64.1571 56.1292V57.2098M44.096 16.9524C51.3932 16.9524 57.3091 22.8683 57.3091 30.1656C57.3091 37.4629 51.3932 43.3787 44.096 43.3787C36.7987 43.3787 30.8828 37.4629 30.8828 30.1656C30.8828 22.8683 36.7987 16.9524 44.096 16.9524Z" stroke="black" stroke-width="3.42034"/>
<path d="M58.651 87.448C58.651 91.6952 61.3239 91.6952 63.9968 91.6952H111.04C115.317 92.2261 115.317 89.5716 115.317 87.448V61.9649C115.317 57.7177 113.713 57.1868 111.574 57.1868H102.487L97.6754 50.2852H77.3614L72.0156 57.1868H63.9968C59.2925 57.1868 58.4728 60.3722 58.651 61.9649V87.448Z" stroke="black" stroke-width="3.42034"/>
<circle cx="86.9731" cy="73.0986" r="13.2349" stroke="black" stroke-width="2.56526"/>
<circle cx="86.9736" cy="73.0976" r="6.32181" stroke="black" stroke-width="2.56526"/>
<circle cx="86.9736" cy="73.0976" r="6.32181" stroke="black" stroke-width="2.56526"/>
</svg>
