<svg width="478" height="134" viewBox="0 0 478 134" fill="none" xmlns="http://www.w3.org/2000/svg">
<circle cx="37.2141" cy="36.7925" r="3.67924" stroke="#69DC8A" stroke-width="4.90566"/>
<path d="M8.24572 88.6689C14.8111 87.4539 30.6278 89.487 35.9995 91.4027C40.5495 93.0254 53.9052 97.7815 57.4863 98.6928C59.6133 99.234 62.4255 99.6285 65.5438 99.7001C76.4899 99.9512 90.6118 95.0478 92.4023 93.2252M2.87402 109.467C9.43943 108.252 26.9867 110.672 30.6278 111.29C35.9995 112.201 49.4287 116.851 53.0099 117.762C62.6033 120.203 82.5542 118.58 86.1353 115.939M5.55987 97.3706C12.1253 96.1556 26.1129 98.4563 29.7325 99.1932C34.2089 100.104 46.7429 105.572 50.324 106.483C53.9052 107.395 57.0538 108.234 60.1721 108.306" stroke="#69DC8A" stroke-width="4.90566" stroke-linecap="round" stroke-linejoin="round"/>
<path d="M67.982 38.0188L61.1646 42.6707M67.982 38.0188L74.7994 42.6707M67.982 38.0188V49.1834M67.982 49.1834L57.2689 53.8353M67.982 49.1834L77.7212 51.9746M67.982 49.1834V58.4872M67.982 58.4872V68.7215M67.982 58.4872L55.374 65.4603L49.4775 68.7215M68.9559 58.4872L82.5907 64.0695M67.982 68.7215L53.3732 78.0253M67.982 68.7215L82.5907 73.3734M67.982 68.7215V78.0253M59.2167 84.538L67.982 79.8861V78.0253M67.982 78.0253L82.5907 84.538M67.982 78.0253V91.9811" stroke="#69DC8A" stroke-width="4.90566" stroke-linecap="round" stroke-linejoin="round"/>
<path d="M48.2513 67.9248L38.7078 58.8679L29.216 67.4528M19.7242 76.0377L29.216 67.4528M29.216 67.4528L20.6734 61.7295L10.2324 71.2683" stroke="#69DC8A" stroke-width="4.90566" stroke-linecap="round" stroke-linejoin="round"/>
<path d="M50.7044 66.0516L41.161 57.6416L31.6692 65.6133M22.1774 73.585L31.6692 65.6133M31.6692 65.6133L23.1265 60.2988L12.6855 69.1562" stroke="black" stroke-width="3.67925" stroke-linecap="round" stroke-linejoin="round"/>
<path d="M71.6617 35.5659L64.8442 40.3236M71.6617 35.5659L78.4791 40.3236M71.6617 35.5659V46.9843M71.6617 46.9843L60.9486 51.7419M71.6617 46.9843L81.4008 49.8389M71.6617 46.9843V56.4996M71.6617 56.4996V66.9664M71.6617 56.4996L59.0537 63.6311L53.1572 66.9664M72.6356 56.4996L86.2704 62.2087M71.6617 66.9664L57.0529 76.4817M71.6617 66.9664L86.2704 71.724M71.6617 66.9664V76.4817M62.8964 83.1424L71.6617 78.3847V76.4817M71.6617 76.4817L86.2704 83.1424M71.6617 76.4817V90.7546" stroke="black" stroke-width="3.67925" stroke-linecap="round" stroke-linejoin="round"/>
<path d="M11.9254 87.4423C18.4908 86.2273 34.3075 88.2604 39.6792 90.1761C44.2292 91.7988 57.5848 96.555 61.166 97.4662C63.293 98.0075 66.1052 98.402 69.2235 98.4735C80.1696 98.7246 94.2915 93.8212 96.082 91.9986M6.55371 108.241C13.1191 107.026 30.6664 109.446 34.3075 110.063C39.6792 110.975 53.1084 115.624 56.6896 116.535C66.283 118.977 86.2339 117.353 89.815 114.713M9.23956 96.1441C15.805 94.9291 29.7925 97.2298 33.4122 97.9666C37.8886 98.8779 50.4226 104.345 54.0037 105.257C57.5848 106.168 60.7335 107.008 63.8518 107.079" stroke="black" stroke-width="3.67925" stroke-linecap="round" stroke-linejoin="round"/>
<circle cx="40.2796" cy="34.9529" r="3.67925" stroke="black" stroke-width="3.67925"/>
<path d="M137.211 88.883C132.501 88.883 128.381 87.8823 124.848 85.8808C121.316 83.8792 118.55 81.1419 116.548 77.6687C114.605 74.1366 113.634 70.0747 113.634 65.483C113.634 60.3615 114.635 56.0053 116.636 52.4143C118.697 48.7645 121.346 45.9977 124.584 44.114C127.88 42.1713 131.353 41.2 135.003 41.2C137.711 41.2 140.331 41.7004 142.862 42.7011C145.393 43.7019 147.63 45.1736 149.573 47.1162C151.516 49 153.076 51.2958 154.253 54.0038C155.43 56.6528 156.048 59.6257 156.107 62.9223C156.107 63.8641 155.754 64.6589 155.048 65.3064C154.341 65.954 153.517 66.2777 152.575 66.2777H117.696L116.107 60.1849H150.103L148.69 61.4211V59.4785C148.455 57.0649 147.63 55.0045 146.218 53.2974C144.864 51.5313 143.186 50.1774 141.184 49.2355C139.242 48.2936 137.181 47.8226 135.003 47.8226C133.237 47.8226 131.471 48.1464 129.705 48.794C127.998 49.3826 126.438 50.3834 125.025 51.7962C123.671 53.1502 122.553 54.9162 121.67 57.0943C120.845 59.2724 120.433 61.8921 120.433 64.9532C120.433 68.3675 121.11 71.3698 122.464 73.96C123.877 76.5502 125.82 78.6106 128.292 80.1411C130.765 81.6128 133.649 82.3487 136.946 82.3487C139.006 82.3487 140.802 82.0838 142.332 81.554C143.863 81.0241 145.187 80.3766 146.306 79.6113C147.424 78.7872 148.366 77.963 149.132 77.1389C149.897 76.6091 150.633 76.3441 151.339 76.3441C152.222 76.3441 152.928 76.6385 153.458 77.2272C154.047 77.8158 154.341 78.5223 154.341 79.3464C154.341 80.3472 153.87 81.2302 152.928 81.9955C151.28 83.8204 149.043 85.4392 146.218 86.8521C143.392 88.206 140.39 88.883 137.211 88.883ZM187.034 41.2C190.037 41.2 192.745 41.5238 195.158 42.1713C197.572 42.8189 199.485 43.7019 200.898 44.8204C202.311 45.9389 203.017 47.2045 203.017 48.6174C203.017 49.3826 202.752 50.1185 202.222 50.8249C201.693 51.5313 200.986 51.8845 200.103 51.8845C199.279 51.8845 198.602 51.7374 198.072 51.443C197.601 51.1487 197.13 50.766 196.659 50.2951C196.247 49.8241 195.659 49.4121 194.893 49.0589C194.187 48.6468 193.157 48.323 191.803 48.0875C190.449 47.8521 189.095 47.7343 187.741 47.7343C184.503 47.7343 181.648 48.4996 179.176 50.0302C176.762 51.5608 174.849 53.6211 173.436 56.2113C172.023 58.8015 171.317 61.7449 171.317 65.0415C171.317 68.3381 171.994 71.2815 173.348 73.8717C174.702 76.4619 176.585 78.5223 178.999 80.0528C181.413 81.5834 184.209 82.3487 187.388 82.3487C189.448 82.3487 191.096 82.1721 192.333 81.8189C193.569 81.4657 194.599 81.0536 195.423 80.5826C196.483 79.994 197.277 79.4053 197.807 78.8166C198.396 78.2279 199.161 77.9336 200.103 77.9336C201.104 77.9336 201.869 78.2574 202.399 78.9049C202.988 79.5525 203.282 80.3472 203.282 81.2891C203.282 82.3487 202.546 83.4672 201.074 84.6445C199.603 85.8219 197.601 86.8226 195.07 87.6468C192.597 88.4709 189.772 88.883 186.593 88.883C182.119 88.883 178.204 87.8528 174.849 85.7925C171.493 83.6732 168.874 80.8181 166.99 77.2272C165.165 73.5774 164.253 69.5155 164.253 65.0415C164.253 60.5675 165.194 56.5351 167.078 52.9441C169.021 49.3532 171.699 46.4981 175.114 44.3789C178.528 42.2596 182.502 41.2 187.034 41.2ZM255.871 65.0415C255.871 69.6332 254.84 73.7245 252.78 77.3155C250.778 80.9064 248.041 83.7321 244.568 85.7925C241.154 87.8528 237.298 88.883 233 88.883C228.703 88.883 224.818 87.8528 221.345 85.7925C217.871 83.7321 215.105 80.9064 213.044 77.3155C211.043 73.7245 210.042 69.6332 210.042 65.0415C210.042 60.4498 211.043 56.3585 213.044 52.7675C215.105 49.1766 217.871 46.3509 221.345 44.2906C224.818 42.2302 228.703 41.2 233 41.2C237.298 41.2 241.154 42.2302 244.568 44.2906C248.041 46.3509 250.778 49.1766 252.78 52.7675C254.84 56.3585 255.871 60.4498 255.871 65.0415ZM248.806 65.0415C248.806 61.6272 248.1 58.6249 246.687 56.0347C245.333 53.4445 243.449 51.4136 241.036 49.9419C238.681 48.4702 236.003 47.7343 233 47.7343C229.998 47.7343 227.29 48.4702 224.877 49.9419C222.522 51.4136 220.638 53.4445 219.225 56.0347C217.812 58.6249 217.106 61.6272 217.106 65.0415C217.106 68.397 217.812 71.3698 219.225 73.96C220.638 76.5502 222.522 78.6106 224.877 80.1411C227.29 81.6128 229.998 82.3487 233 82.3487C236.003 82.3487 238.681 81.6128 241.036 80.1411C243.449 78.6106 245.333 76.5502 246.687 73.96C248.1 71.3698 248.806 68.397 248.806 65.0415ZM274.266 84.3796C274.266 85.3804 273.913 86.234 273.207 86.9404C272.5 87.6468 271.647 88 270.646 88C269.645 88 268.821 87.6468 268.174 86.9404C267.526 86.234 267.202 85.3804 267.202 84.3796V26.1887C267.202 25.1879 267.526 24.3638 268.174 23.7162C268.88 23.0098 269.734 22.6566 270.734 22.6566C271.794 22.6566 272.647 23.0098 273.295 23.7162C273.943 24.3638 274.266 25.1879 274.266 26.1887V84.3796ZM330.462 65.0415C330.462 69.6332 329.431 73.7245 327.371 77.3155C325.369 80.9064 322.632 83.7321 319.159 85.7925C315.745 87.8528 311.889 88.883 307.591 88.883C303.294 88.883 299.409 87.8528 295.935 85.7925C292.462 83.7321 289.695 80.9064 287.635 77.3155C285.634 73.7245 284.633 69.6332 284.633 65.0415C284.633 60.4498 285.634 56.3585 287.635 52.7675C289.695 49.1766 292.462 46.3509 295.935 44.2906C299.409 42.2302 303.294 41.2 307.591 41.2C311.889 41.2 315.745 42.2302 319.159 44.2906C322.632 46.3509 325.369 49.1766 327.371 52.7675C329.431 56.3585 330.462 60.4498 330.462 65.0415ZM323.397 65.0415C323.397 61.6272 322.691 58.6249 321.278 56.0347C319.924 53.4445 318.04 51.4136 315.627 49.9419C313.272 48.4702 310.594 47.7343 307.591 47.7343C304.589 47.7343 301.881 48.4702 299.468 49.9419C297.113 51.4136 295.229 53.4445 293.816 56.0347C292.403 58.6249 291.697 61.6272 291.697 65.0415C291.697 68.397 292.403 71.3698 293.816 73.96C295.229 76.5502 297.113 78.6106 299.468 80.1411C301.881 81.6128 304.589 82.3487 307.591 82.3487C310.594 82.3487 313.272 81.6128 315.627 80.1411C318.04 78.6106 319.924 76.5502 321.278 73.96C322.691 71.3698 323.397 68.397 323.397 65.0415ZM339.321 42.6128H360.072C361.014 42.6128 361.779 42.9366 362.367 43.5841C363.015 44.2317 363.339 44.997 363.339 45.88C363.339 46.8219 363.015 47.6166 362.367 48.2641C361.779 48.8528 361.014 49.1472 360.072 49.1472H339.321C338.438 49.1472 337.672 48.8234 337.025 48.1758C336.377 47.5283 336.054 46.7336 336.054 45.7917C336.054 44.9087 336.377 44.1728 337.025 43.5841C337.672 42.9366 338.438 42.6128 339.321 42.6128ZM348.592 30.6038C349.593 30.6038 350.417 30.957 351.065 31.6634C351.712 32.3109 352.036 33.1351 352.036 34.1358V76.7857C352.036 78.1985 352.242 79.2581 352.654 79.9645C353.066 80.6709 353.596 81.1713 354.244 81.4657C354.95 81.7011 355.627 81.8189 356.275 81.8189C356.863 81.8189 357.364 81.7306 357.776 81.554C358.247 81.3185 358.777 81.2008 359.365 81.2008C359.954 81.2008 360.484 81.4951 360.955 82.0838C361.484 82.6136 361.749 83.32 361.749 84.203C361.749 85.2626 361.131 86.1751 359.895 86.9404C358.659 87.6468 357.275 88 355.745 88C354.921 88 353.89 87.9411 352.654 87.8234C351.477 87.7057 350.3 87.323 349.122 86.6755C347.945 86.0279 346.944 84.9683 346.12 83.4966C345.355 81.966 344.972 79.8468 344.972 77.1389V34.1358C344.972 33.1351 345.325 32.3109 346.032 31.6634C346.738 30.957 347.592 30.6038 348.592 30.6038ZM376.697 88C375.696 88 374.843 87.6468 374.136 86.9404C373.489 86.234 373.165 85.3804 373.165 84.3796V45.88C373.165 44.8792 373.489 44.0551 374.136 43.4075C374.843 42.7011 375.696 42.3479 376.697 42.3479C377.757 42.3479 378.61 42.7011 379.258 43.4075C379.906 44.0551 380.229 44.8792 380.229 45.88V57.5358L379.17 55.6815C379.523 53.8566 380.141 52.0906 381.024 50.3834C381.966 48.6174 383.143 47.0574 384.556 45.7034C385.969 44.2906 387.588 43.2015 389.413 42.4362C391.238 41.6121 393.239 41.2 395.417 41.2C396.712 41.2 397.89 41.5238 398.949 42.1713C400.068 42.76 400.627 43.6136 400.627 44.7321C400.627 45.9683 400.303 46.8807 399.656 47.4694C399.008 48.0581 398.272 48.3524 397.448 48.3524C396.683 48.3524 395.947 48.2053 395.241 47.9109C394.534 47.5577 393.651 47.3811 392.592 47.3811C391.12 47.3811 389.648 47.7932 388.176 48.6174C386.764 49.3826 385.439 50.5011 384.203 51.9728C383.026 53.4445 382.054 55.1223 381.289 57.006C380.582 58.8309 380.229 60.803 380.229 62.9223V84.3796C380.229 85.3804 379.876 86.234 379.17 86.9404C378.522 87.6468 377.698 88 376.697 88ZM415.406 84.3796C415.406 85.3804 415.053 86.234 414.346 86.9404C413.699 87.6468 412.875 88 411.874 88C410.814 88 409.961 87.6468 409.313 86.9404C408.666 86.234 408.342 85.3804 408.342 84.3796V45.1736C408.342 44.1728 408.666 43.3487 409.313 42.7011C410.019 41.9947 410.873 41.6415 411.874 41.6415C412.875 41.6415 413.699 41.9947 414.346 42.7011C415.053 43.3487 415.406 44.1728 415.406 45.1736V84.3796ZM411.874 35.7253C410.402 35.7253 409.313 35.4309 408.607 34.8423C407.9 34.2536 407.547 33.3411 407.547 32.1049V30.8687C407.547 29.6324 407.93 28.72 408.695 28.1313C409.46 27.5426 410.549 27.2483 411.962 27.2483C413.375 27.2483 414.435 27.5426 415.141 28.1313C415.847 28.72 416.201 29.6324 416.201 30.8687V32.1049C416.201 33.3411 415.818 34.2536 415.053 34.8423C414.346 35.4309 413.287 35.7253 411.874 35.7253ZM450.612 41.6415C454.615 41.6415 458.206 42.6423 461.385 44.6438C464.564 46.6453 467.066 49.4121 468.891 52.9441C470.774 56.4762 471.716 60.5381 471.716 65.1298C471.716 69.6626 470.774 73.7245 468.891 77.3155C467.066 80.8475 464.564 83.6438 461.385 85.7042C458.265 87.7057 454.733 88.7064 450.789 88.7064C448.611 88.7064 446.55 88.3826 444.608 87.7351C442.724 87.0287 440.987 86.1457 439.398 85.086C437.867 83.9675 436.572 82.7313 435.512 81.3774C434.453 79.9645 433.688 78.5811 433.217 77.2272L435.159 75.9909V102.04C435.159 103.041 434.836 103.894 434.188 104.601C433.54 105.307 432.687 105.66 431.627 105.66C430.626 105.66 429.773 105.307 429.066 104.601C428.419 103.953 428.095 103.1 428.095 102.04V45.6151C428.095 44.6143 428.419 43.7902 429.066 43.1426C429.773 42.4362 430.626 42.083 431.627 42.083C432.687 42.083 433.54 42.4362 434.188 43.1426C434.836 43.7902 435.159 44.6143 435.159 45.6151V53.474L433.835 52.7675C434.247 51.2958 434.953 49.883 435.954 48.5291C437.014 47.1751 438.279 45.9977 439.751 44.997C441.282 43.9374 442.959 43.1132 444.784 42.5245C446.668 41.9358 448.611 41.6415 450.612 41.6415ZM449.817 48.1758C446.874 48.1758 444.254 48.9117 441.959 50.3834C439.722 51.8551 437.956 53.8566 436.66 56.3879C435.424 58.9192 434.806 61.8332 434.806 65.1298C434.806 68.3675 435.424 71.2815 436.66 73.8717C437.956 76.4619 439.722 78.4928 441.959 79.9645C444.254 81.4362 446.874 82.1721 449.817 82.1721C452.761 82.1721 455.351 81.4362 457.588 79.9645C459.825 78.4928 461.591 76.4619 462.886 73.8717C464.181 71.2815 464.829 68.3675 464.829 65.1298C464.829 61.8332 464.181 58.9192 462.886 56.3879C461.591 53.8566 459.825 51.8551 457.588 50.3834C455.351 48.9117 452.761 48.1758 449.817 48.1758Z" fill="black"/>
</svg>
