<svg width="111" height="72" viewBox="0 0 111 72" fill="none" xmlns="http://www.w3.org/2000/svg">
<path d="M72.6743 22.6003C77.7789 27.3528 80.6466 33.7987 80.6466 40.5198H53.4273L26.208 40.5198C26.208 33.7987 29.0757 27.3528 34.1804 22.6003C39.285 17.8477 46.2083 15.1777 53.4273 15.1777C60.6463 15.1777 67.5696 17.8477 72.6743 22.6003Z" fill="#69DC8A"/>
<path d="M7.47029 34.3873C15.317 32.9367 34.2203 35.364 40.6403 37.6511C46.0783 39.5884 62.0403 45.2668 66.3203 46.3547C68.8624 47.0009 72.2235 47.4719 75.9503 47.5573C89.0325 47.8571 105.91 42.0029 108.05 39.827M1.05029 59.2184C8.89696 57.7678 29.8686 60.6568 34.2203 61.3943C40.6403 62.4822 56.6903 68.0333 60.9703 69.1213C72.436 72.0358 96.2803 70.0979 100.56 66.9454M4.26029 44.7762C12.107 43.3256 28.8242 46.0724 33.1503 46.9522C38.5003 48.0401 53.4803 54.5678 57.7603 55.6557C62.0403 56.7437 65.8035 57.7463 69.5303 57.8317" stroke="#69DC8A" stroke-linecap="round" stroke-linejoin="round"/>
<path d="M8.47029 33.3873C16.317 31.9367 35.2203 34.364 41.6403 36.6511C47.0783 38.5884 63.0403 44.2668 67.3203 45.3547C69.8624 46.0009 73.2235 46.4719 76.9503 46.5573C90.0325 46.8571 106.91 41.0029 109.05 38.827M2.05029 58.2184C9.89696 56.7678 30.8686 59.6568 35.2203 60.3943C41.6403 61.4822 57.6903 67.0333 61.9703 68.1213C73.436 71.0358 97.2803 69.0979 101.56 65.9454M5.26029 43.7762C13.107 42.3256 29.8242 45.0724 34.1503 45.9522C39.5003 47.0401 54.4803 53.5678 58.7603 54.6557C63.0403 55.7437 66.8035 56.7463 70.5303 56.8317" stroke="black" stroke-width="2" stroke-linecap="round" stroke-linejoin="round"/>
<path d="M75.9931 22.3322C80.6482 26.6662 83.356 32.4499 83.6247 38.5198H57.4276L49.5301 38.5198C47.0151 37.6074 43.1699 36.262 39.5906 35.1131C37.7618 34.526 35.9939 33.9875 34.5045 33.5838C33.6392 33.3493 32.8376 33.1516 32.1607 33.019C33.3545 29.0211 35.6423 25.3299 38.862 22.3322C43.7745 17.7585 50.4516 15.1777 57.4276 15.1777C64.4035 15.1777 71.0806 17.7585 75.9931 22.3322Z" stroke="black" stroke-width="2"/>
<path d="M75.1653 11.4212C74.7109 16.2389 80.0781 16.1774 83.4958 16.1774C97.8072 16.1774 99.0887 16.1774 99.5159 13.4596C99.7902 11.7151 97.8071 11.1947 96.7391 11.4212C97.5935 9.30732 97.5081 4.71719 90.331 3.26768C83.9229 1.97346 80.9325 6.43847 80.7189 8.92982C79.3661 7.57089 75.5924 6.89147 75.1653 11.4212Z" fill="#69DC8A"/>
<path d="M77.1653 9.42118C76.7109 14.2389 82.0781 14.1774 85.4958 14.1774C99.8072 14.1774 101.089 14.1774 101.516 11.4596C101.79 9.71507 99.8071 9.19472 98.7391 9.42118C99.5935 7.30732 99.5081 2.71719 92.331 1.26768C85.9229 -0.0265423 82.9325 4.43847 82.7189 6.92982C81.3661 5.57089 77.5924 4.89147 77.1653 9.42118Z" stroke="#222222" stroke-width="2"/>
</svg>
