<svg width="111" height="72" viewBox="0 0 111 72" fill="none" xmlns="http://www.w3.org/2000/svg">
<path d="M72.6743 23.2956C77.7789 28.0481 80.6466 34.494 80.6466 41.2152H53.4273L26.208 41.2151C26.208 34.494 29.0757 28.0481 34.1804 23.2956C39.285 18.543 46.2083 15.873 53.4273 15.873C60.6463 15.873 67.5696 18.543 72.6743 23.2956Z" fill="#41C2F4"/>
<path d="M7.47029 35.0831C15.317 33.6325 34.2203 36.0598 40.6403 38.3469C46.0783 40.2842 62.0403 45.9626 66.3203 47.0505C68.8624 47.6967 72.2235 48.1677 75.9503 48.2531C89.0325 48.5529 105.91 42.6987 108.05 40.5228M1.05029 59.9142C8.89696 58.4636 29.8686 61.3526 34.2203 62.0901C40.6403 63.178 56.6903 68.7291 60.9703 69.8171C72.436 72.7316 96.2803 70.7937 100.56 67.6412M4.26029 45.472C12.107 44.0214 28.8242 46.7682 33.1503 47.648C38.5003 48.7359 53.4803 55.2636 57.7603 56.3515C62.0403 57.4395 65.8035 58.4421 69.5303 58.5275" stroke="#41C2F4" stroke-linecap="round" stroke-linejoin="round"/>
<path d="M8.47029 34.0831C16.317 32.6325 35.2203 35.0598 41.6403 37.3469C47.0783 39.2842 63.0403 44.9626 67.3203 46.0505C69.8624 46.6967 73.2235 47.1677 76.9503 47.2531C90.0325 47.5529 106.91 41.6987 109.05 39.5228M2.05029 58.9142C9.89696 57.4636 30.8686 60.3526 35.2203 61.0901C41.6403 62.178 57.6903 67.7291 61.9703 68.8171C73.436 71.7316 97.2803 69.7937 101.56 66.6412M5.26029 44.472C13.107 43.0214 29.8242 45.7682 34.1503 46.648C39.5003 47.7359 54.4803 54.2636 58.7603 55.3515C63.0403 56.4395 66.8035 57.4421 70.5303 57.5275" stroke="black" stroke-width="2" stroke-linecap="round" stroke-linejoin="round"/>
<path d="M75.9931 23.0275C80.6482 27.3615 83.356 33.1452 83.6247 39.2152H57.4276L49.5301 39.2152C47.0151 38.3027 43.1699 36.9574 39.5906 35.8084C37.7618 35.2213 35.9939 34.6828 34.5045 34.2791C33.6392 34.0446 32.8376 33.847 32.1607 33.7143C33.3545 29.7164 35.6423 26.0252 38.862 23.0275C43.7745 18.4538 50.4516 15.873 57.4276 15.873C64.4035 15.873 71.0806 18.4538 75.9931 23.0275Z" stroke="black" stroke-width="2"/>
<path d="M75.1653 12.117C74.7109 16.9347 80.0781 16.8732 83.4958 16.8732C97.8072 16.8732 99.0887 16.8732 99.5159 14.1554C99.7902 12.4109 97.8071 11.8905 96.7391 12.117C97.5935 10.0031 97.5081 5.41299 90.331 3.96348C83.9229 2.66926 80.9325 7.13427 80.7189 9.62562C79.3661 8.2667 75.5924 7.58727 75.1653 12.117Z" fill="#41C2F4"/>
<path d="M77.1653 10.117C76.7109 14.9347 82.0781 14.8732 85.4958 14.8732C99.8072 14.8732 101.089 14.8732 101.516 12.1554C101.79 10.4109 99.8071 9.89052 98.7391 10.117C99.5935 8.00312 99.5081 3.41299 92.331 1.96348C85.9229 0.669258 82.9325 5.13427 82.7189 7.62562C81.3661 6.2667 77.5924 5.58727 77.1653 10.117Z" stroke="#222222" stroke-width="2"/>
</svg>
