<svg width="40" height="43" viewBox="0 0 40 43" fill="none" xmlns="http://www.w3.org/2000/svg">
<path d="M1.73291 39.7559V5.16541H16.6414L27.3637 15.594V27.0508L18.5326 36.1446L17.993 36.7003L15.0257 39.7559H1.73291Z" fill="#69DC8A"/>
<path d="M16.6414 5.16541H1.73291V39.7559H15.0257L17.993 36.7003L18.5326 36.1446L27.3637 27.0508V15.594M16.6414 5.16541L27.3637 15.594M16.6414 5.16541V15.594H27.3637" stroke="#69DC8A" stroke-width="2.5"/>
<path d="M22.5367 41.002L18.5673 37.3119L17.1719 42.6146L22.5367 41.002Z" fill="#69DC8A" stroke="#69DC8A" stroke-width="0.375386"/>
<path d="M34.6199 28.7361C36.2573 22.8318 32.7001 23.9768 30.519 25.1344L29.9082 25.7374L33.9774 29.4183L34.6199 28.7361Z" fill="#69DC8A" stroke="#69DC8A" stroke-width="0.375386"/>
<path d="M18.8438 37.0646L30.0083 26.1605L33.5863 29.2817L22.8019 40.3201L18.8438 37.0646Z" fill="#69DC8A" stroke="#69DC8A" stroke-width="1.12616"/>
<path d="M21.1829 1.85388H6.27441V36.4444H19.5672L22.5345 33.3888L23.0741 32.8331L31.9052 23.7392V12.2825M21.1829 1.85388L31.9052 12.2825M21.1829 1.85388V12.2825H31.9052" stroke="black" stroke-width="2.5"/>
<path d="M27.0777 37.6904L23.1084 34.0004L21.7129 39.3031L27.0777 37.6904Z" fill="black" stroke="black" stroke-width="0.375386"/>
<path d="M39.1614 25.4246C40.7988 19.5202 37.2416 20.6652 35.0605 21.8229L34.4497 22.4259L38.5189 26.1068L39.1614 25.4246Z" fill="black" stroke="black" stroke-width="0.375386"/>
<path d="M23.3853 33.7531L34.5498 22.849L38.1279 25.9702L27.3434 37.0086L23.3853 33.7531Z" stroke="black" stroke-width="1.12616"/>
</svg>
