<svg width="112" height="83" viewBox="0 0 112 83" fill="none" xmlns="http://www.w3.org/2000/svg">
<path d="M89.7403 17.521C93.8673 17.521 97.2156 14.1726 97.2156 10.0456C97.2156 5.91864 93.8673 2.57031 89.7403 2.57031C85.6133 2.57031 82.265 5.91864 82.265 10.0456C82.265 14.1726 85.6133 17.521 89.7403 17.521ZM104.457 40.7412L100.829 38.9035L99.3181 34.3249C97.0287 27.3791 90.6436 22.5201 83.4018 22.5045C77.7953 22.489 74.6962 24.0775 68.8716 26.4291C65.5078 27.784 62.7512 30.3536 61.1316 33.6241L60.0881 35.7421C58.8734 38.2027 59.8545 41.1929 62.2996 42.4232C64.7291 43.6535 67.6881 42.6568 68.9184 40.1962L69.9618 38.0781C70.5069 36.988 71.4101 36.1314 72.5314 35.6798L76.7052 33.9979L74.338 43.451C73.5282 46.6903 74.4003 50.1321 76.6585 52.6083L85.987 62.7935C87.1083 64.0238 87.9026 65.5033 88.3075 67.1073L91.1575 78.5228C91.8271 81.1859 94.537 82.8211 97.2 82.1514C99.8631 81.4818 101.498 78.772 100.829 76.1089L97.3714 62.2484C96.9664 60.6443 96.1722 59.1492 95.0509 57.9345L87.9649 50.1944L90.6436 39.4953L91.5001 42.065C92.3255 44.5723 94.1009 46.6436 96.4369 47.8272L100.066 49.6649C102.495 50.8952 105.454 49.8985 106.684 47.4379C107.884 44.9928 106.902 41.9715 104.457 40.7412ZM68.8094 62.6533C68.311 63.9148 67.5635 65.0516 66.5979 66.0016L58.8111 73.804C56.8644 75.7507 56.8644 78.9121 58.8111 80.8588C60.7578 82.8055 63.9037 82.8055 65.8504 80.8588L75.1011 71.6081C76.0511 70.6581 76.7986 69.5212 77.3125 68.2598L79.415 62.9959C70.8028 53.605 73.388 56.4861 72.0331 54.6329L68.8094 62.6533Z" fill="#69DC8A"/>
<path d="M108.085 39.6684L108.082 39.6669L104.453 37.8292L103.993 37.596L103.831 37.1057L102.32 32.5271L102.32 32.5267C100.19 26.0631 94.2615 21.5794 87.5886 21.5651H87.5878C82.9106 21.5521 80.1443 22.6877 75.5162 24.5877C74.8909 24.8444 74.2316 25.1151 73.5291 25.3987L73.5281 25.3991C70.4531 26.6377 67.9273 28.9894 66.4418 31.9881C66.4416 31.9885 66.4414 31.989 66.4412 31.9894L65.3989 34.1051L65.3984 34.106C64.4833 35.9597 65.2279 38.1998 67.0509 39.1171L67.0538 39.1186C68.8526 40.0295 71.061 39.301 71.9882 37.4508C71.9887 37.4498 71.9893 37.4487 71.9898 37.4477L73.0299 35.3363L73.0332 35.3297C73.7083 33.9795 74.8364 32.9019 76.2537 32.3309C76.2537 32.3309 76.2538 32.3309 76.2539 32.3309L80.4274 30.649L82.7032 29.7319L82.1072 32.112L79.7401 41.5647C79.0323 44.3959 79.794 47.4077 81.7709 49.5759C81.7711 49.5761 81.7713 49.5764 81.7715 49.5766L91.0983 59.7597L91.1004 59.762C92.3602 61.1444 93.2536 62.8079 93.709 64.6119L93.7097 64.6151L96.5592 76.0285C96.5592 76.0286 96.5593 76.0288 96.5593 76.0289C97.0622 78.0278 99.0967 79.2496 101.085 78.7497C103.084 78.247 104.306 76.2123 103.806 74.2243L103.805 74.222L100.349 60.3649C100.349 60.3644 100.349 60.364 100.349 60.3636C99.9928 58.9553 99.2965 57.6488 98.3218 56.5929L98.3184 56.5891L91.2324 48.849L90.7786 48.3533L90.9418 47.7014L93.6204 37.0023L94.6623 32.8409L96.0189 36.9106L96.8754 39.4802L96.8769 39.4847C97.5996 41.6802 99.1527 43.4897 101.191 44.5226L108.085 39.6684ZM108.085 39.6684C109.905 40.5842 110.653 42.8533 109.754 44.6938C108.826 46.5431 106.618 47.271 104.82 46.3603C104.82 46.3603 104.82 46.3603 104.82 46.3603L101.191 44.5227L108.085 39.6684ZM76.5563 54.9647C77.067 55.5331 77.9572 56.5026 79.5709 58.2601C80.2813 59.0338 81.132 59.9602 82.1522 61.0724L80.3444 65.5987C80.3438 65.6001 80.3433 65.6014 80.3427 65.6027C79.8898 66.713 79.2343 67.7071 78.4067 68.5348L69.1559 77.7855C67.6974 79.244 65.343 79.244 63.8844 77.7855C62.4259 76.327 62.4259 73.957 63.8844 72.4984L63.8853 72.4975L71.664 64.7032C71.6654 64.7018 71.6668 64.7005 71.6682 64.6991C72.7573 63.6264 73.5993 62.3444 74.16 60.9266C74.1605 60.9254 74.1609 60.9243 74.1614 60.9231L76.5563 54.9647ZM100.155 7.85619C100.155 11.2928 97.3664 14.0815 93.9297 14.0815C90.4931 14.0815 87.7044 11.2928 87.7044 7.85619C87.7044 4.41954 90.4931 1.63086 93.9297 1.63086C97.3664 1.63086 100.155 4.41954 100.155 7.85619Z" stroke="black" stroke-width="2.5"/>
<line x1="6.47998" y1="49.4722" x2="50.9406" y2="49.4722" stroke="black" stroke-width="1.85253"/>
<line x1="0.922363" y1="64.2925" x2="45.383" y2="64.2925" stroke="black" stroke-width="1.85253"/>
<line x1="8.33252" y1="79.1128" x2="52.7931" y2="79.1128" stroke="black" stroke-width="1.85253"/>
</svg>
