<svg width="87" height="71" viewBox="0 0 87 71" fill="none" xmlns="http://www.w3.org/2000/svg">
<path d="M8.49479 11.535H7.99479V12.035V14.779C6.35039 14.7256 4.58066 15.3377 3.18573 17.0225C1.64585 18.8823 0.608887 21.9926 0.608887 26.8148V60.0692C0.608887 61.6455 1.0348 64.0054 2.33178 65.988C3.6464 67.9975 5.84877 69.6013 9.31545 69.6013H71.6718C73.0235 69.6725 75.001 69.222 76.6449 67.6685C78.3059 66.099 79.5712 63.4571 79.5712 59.2481V23.9666C79.7114 22.5815 79.4912 20.4907 78.3704 18.6422C77.2266 16.7558 75.1697 15.1655 71.7351 14.8219L71.7103 14.8194H71.6853H64.7914C64.7397 13.2249 64.4253 11.3081 63.4538 9.72119C62.3549 7.92607 60.4469 6.6084 57.3238 6.6084H38.8591C37.5817 6.60839 35.8018 6.8194 34.286 8.05514C32.8231 9.24773 31.6936 11.3215 31.416 14.8194H21.3046V12.035V11.535H20.8046H8.49479Z" fill="#69DC8A" stroke="#69DC8A"/>
<path d="M71.1089 36.6084C71.1089 47.9302 61.9307 57.1084 50.6089 57.1084C39.287 57.1084 30.1089 47.9302 30.1089 36.6084C30.1089 25.2866 39.287 16.1084 50.6089 16.1084C61.9307 16.1084 71.1089 25.2866 71.1089 36.6084Z" fill="white"/>
<path d="M52.1089 33.2184L49.8497 31.1084L47.6028 33.1084M45.3558 35.1084L47.6028 33.1084M47.6028 33.1084L45.5805 31.7751L43.1089 33.9973" stroke="#69DC8A" stroke-linecap="round" stroke-linejoin="round"/>
<path d="M55.5795 26.1084L53.9324 27.2291M55.5795 26.1084L57.2265 27.2291M55.5795 26.1084V28.7981M55.5795 28.7981L52.9912 29.9187M55.5795 28.7981L57.9324 29.4705M55.5795 28.7981V31.0394M55.5795 31.0394V33.505M55.5795 31.0394L52.5334 32.7193L51.1089 33.505M55.8148 31.0394L59.1089 32.3843M55.5795 33.505L52.0501 35.7463M55.5795 33.505L59.1089 34.6256M55.5795 33.505V35.7463M53.4618 37.3153L55.5795 36.1946V35.7463M55.5795 35.7463L59.1089 37.3153M55.5795 35.7463V39.1084" stroke="#69DC8A" stroke-linecap="round" stroke-linejoin="round"/>
<path d="M41.4289 37.2017C43.0422 36.8926 46.9289 37.4099 48.2489 37.8972C49.367 38.31 52.6489 39.52 53.5289 39.7518C54.0516 39.8895 54.7426 39.9899 55.5089 40.0081C58.1987 40.0719 61.6689 38.8245 62.1089 38.3609M40.1089 43.6929C41.7222 43.3838 46.0341 43.9994 46.9289 44.1565C48.2489 44.3883 51.5489 45.5712 52.4289 45.803C54.7863 46.424 59.6889 46.0111 60.5689 45.3394M40.7689 40.2155C42.3822 39.9064 45.8194 40.4917 46.7089 40.6791C47.8089 40.9109 50.8889 42.3019 51.7689 42.5337C52.6489 42.7655 53.4226 42.9792 54.1889 42.9974C56.8787 43.0612 60.5689 42.7655 61.6689 41.8382" stroke="#69DC8A" stroke-linecap="round" stroke-linejoin="round"/>
<circle cx="48.6089" cy="25.6084" r="1" stroke="#69DC8A"/>
<circle cx="15.1089" cy="20.1084" r="4" stroke="white" stroke-opacity="0.97" stroke-width="2"/>
<path d="M76.7029 64.1013H14.333C7.76778 64.1013 6.12646 58.0799 6.12646 55.0692V21.8147C6.12646 12.29 10.2297 9.90882 13.5124 10.3194V7.03499H25.8222V10.3194H36.9011C37.3114 2.9295 41.4147 2.10839 43.8767 2.1084H62.3414C68.2502 2.1084 69.317 7.03499 69.317 10.3194H76.7029C83.2682 10.9763 84.3624 16.3408 84.0888 18.9409V54.2481C84.0888 62.4591 79.1649 64.2381 76.7029 64.1013Z" stroke="black" stroke-width="3"/>
<path d="M52.6265 57.1084C64.5006 57.1084 74.1265 47.4825 74.1265 35.6084C74.1265 23.7343 64.5006 14.1084 52.6265 14.1084C40.7523 14.1084 31.1265 23.7343 31.1265 35.6084C31.1265 47.4825 40.7523 57.1084 52.6265 57.1084Z" stroke="black" stroke-opacity="0.97" stroke-width="2"/>
<path d="M53.1265 33.2184L50.8673 31.1084L48.6204 33.1084M46.3734 35.1084L48.6204 33.1084M48.6204 33.1084L46.5981 31.7751L44.1265 33.9973" stroke="black" stroke-linecap="round" stroke-linejoin="round"/>
<path d="M56.5971 26.1084L54.95 27.2291M56.5971 26.1084L58.2441 27.2291M56.5971 26.1084V28.7981M56.5971 28.7981L54.0088 29.9187M56.5971 28.7981L58.95 29.4705M56.5971 28.7981V31.0394M56.5971 31.0394V33.505M56.5971 31.0394L53.551 32.7193L52.1265 33.505M56.8323 31.0394L60.1265 32.3843M56.5971 33.505L53.0676 35.7463M56.5971 33.505L60.1265 34.6256M56.5971 33.505V35.7463M54.4794 37.3153L56.5971 36.1946V35.7463M56.5971 35.7463L60.1265 37.3153M56.5971 35.7463V39.1084" stroke="black" stroke-opacity="0.97" stroke-linecap="round" stroke-linejoin="round"/>
<path d="M42.4465 37.2017C44.0598 36.8926 47.9465 37.4099 49.2665 37.8972C50.3846 38.31 53.6665 39.52 54.5465 39.7518C55.0691 39.8895 55.7602 39.9899 56.5265 40.0081C59.2163 40.0719 62.6865 38.8245 63.1265 38.3609M41.1265 43.6929C42.7398 43.3838 47.0517 43.9994 47.9465 44.1565C49.2665 44.3883 52.5665 45.5712 53.4465 45.803C55.8039 46.424 60.7065 46.0111 61.5865 45.3394M41.7865 40.2155C43.3998 39.9064 46.837 40.4917 47.7265 40.6791C48.8265 40.9109 51.9065 42.3019 52.7865 42.5337C53.6665 42.7655 54.4402 42.9792 55.2065 42.9974C57.8963 43.0612 61.5865 42.7655 62.6865 41.8382" stroke="black" stroke-linecap="round" stroke-linejoin="round"/>
<circle cx="49.6265" cy="25.6084" r="1" stroke="black"/>
<path d="M13.5124 6.03499H12.5124V7.03499V9.28302C10.8788 9.35988 9.17682 10.0626 7.81818 11.7036C6.17456 13.6887 5.12646 16.9328 5.12646 21.8148V55.0692C5.12646 56.7164 5.56796 59.1782 6.93094 61.2617C8.3292 63.3991 10.6823 65.1013 14.333 65.1013H76.6766C78.1483 65.1752 80.2568 64.6848 82.0059 63.0319C83.7891 61.3469 85.0888 58.5606 85.0888 54.2481V18.9914C85.2323 17.5219 84.9969 15.3314 83.8155 13.3829C82.588 11.3584 80.389 9.68319 76.8025 9.32434L76.7528 9.31937H76.7029H70.2854C70.1866 7.77809 69.8323 5.98658 68.8979 4.46014C67.7053 2.51209 65.6332 1.1084 62.3414 1.1084H43.8767C42.5529 1.10839 40.6343 1.32513 38.9876 2.66761C37.4577 3.91486 36.3226 5.99943 35.9774 9.31937H26.8222V7.03499V6.03499H25.8222H13.5124Z" stroke="black" stroke-opacity="0.97" stroke-width="2"/>
<circle cx="16.1265" cy="20.1084" r="4" stroke="black" stroke-opacity="0.97" stroke-width="2"/>
</svg>
