<svg width="122" height="73" viewBox="0 0 122 73" fill="none" xmlns="http://www.w3.org/2000/svg">
<path d="M94.291 25.9002C91.3099 25.8886 88.4592 26.4382 85.8363 27.4469L71.6929 4.65998C71.3008 4.02832 70.754 3.50714 70.1043 3.14575C69.4547 2.78436 68.7235 2.5947 67.98 2.59473H56.3274C54.7184 2.59473 53.4142 3.89891 53.4142 5.50789V8.42105C53.4142 10.03 54.7184 11.3342 56.3274 11.3342H65.5492L68.2613 15.704H47.5881V12.7908C47.5881 11.1818 46.2839 9.87764 44.6749 9.87764H28.751C26.3038 9.87764 24.2398 11.8803 24.2837 14.3269C24.3259 16.7019 26.2639 18.6171 28.6525 18.6171H37.5242L32.1682 27.2692C29.7224 26.3898 27.0876 25.9068 24.3405 25.9C11.5544 25.8691 1.05211 36.2804 0.977457 49.0662C0.901897 62.0012 11.3653 72.5107 24.2828 72.5107C35.1419 72.5107 44.2667 65.0834 46.8538 55.0317H56.3276C57.0719 55.0317 57.8038 54.8416 58.454 54.4794C59.1042 54.1172 59.6512 53.5949 60.0429 52.9621L75.6943 27.6789L78.4141 32.0608C73.7794 36.3301 70.879 42.4537 70.8932 49.2552C70.9196 61.7878 81.435 72.3878 93.9671 72.5094C106.823 72.6341 117.305 62.3492 117.501 49.5689C117.699 36.6525 107.209 25.9505 94.291 25.9002ZM34.9792 39.3319C36.7502 41.2489 38.0149 43.6399 38.5554 46.2922H30.6706L34.9792 39.3319ZM24.2828 63.7712C16.2512 63.7712 9.71695 57.2369 9.71695 49.2053C9.71695 41.1738 16.2512 34.6395 24.2828 34.6395C25.3514 34.6395 26.3923 34.7584 27.396 34.978L19.1108 48.362C17.3117 51.2677 19.4052 55.0317 22.8262 55.0317H37.6287C35.3765 60.1707 30.2435 63.7712 24.2828 63.7712ZM53.8933 46.2922H47.4071C46.6861 40.5103 43.8465 35.3871 39.6903 31.7216L44.1959 24.4435H67.4187L53.8933 46.2922ZM93.4134 63.7504C85.9419 63.3562 79.9311 57.2519 79.6438 49.7754C79.496 45.9299 80.8515 42.3982 83.1642 39.7135L91.2542 52.7474C92.1027 54.1144 93.8986 54.5346 95.2656 53.6861L97.7407 52.15C99.1077 51.3015 99.5281 49.5056 98.6795 48.1386L90.5831 35.0943C91.7645 34.7919 92.9792 34.6391 94.1987 34.6397C102.23 34.6397 108.765 41.1739 108.765 49.2055C108.764 57.4971 101.8 64.193 93.4134 63.7504Z" fill="#41C2F4"/>
<path d="M28.8337 24.5697C31.4452 24.5761 33.9477 25.0351 36.27 25.8702L37.1582 26.1895L37.655 25.387L43.0111 16.7349L44.1121 14.9563H42.0203H33.1486C31.3972 14.9563 29.9758 13.5519 29.9449 11.8106L29.9448 11.8104C29.9133 10.0486 31.4179 8.5473 33.2471 8.5473H49.171C50.1364 8.5473 50.9189 9.32978 50.9189 10.2952V13.2084V14.3736H52.0842H72.7574H74.8521L73.7475 12.5939L71.0353 8.22411L70.6935 7.67335H70.0453H60.8235C59.8581 7.67335 59.0756 6.89087 59.0756 5.92545V3.01228C59.0756 2.04687 59.8581 1.26439 60.8235 1.26439H72.4761C73.0214 1.26437 73.5575 1.40345 74.034 1.66847C74.5104 1.93349 74.9114 2.31569 75.1989 2.77888L89.3423 25.5658L89.8507 26.385L90.7506 26.0389C93.2412 25.0811 95.9487 24.5588 98.7825 24.5699C111.051 24.6176 121.02 34.7872 120.832 47.0555C120.646 59.1964 110.687 68.967 98.4745 68.8486C86.5809 68.7331 76.5796 58.6519 76.5546 46.7572C76.5411 40.2958 79.2949 34.4798 83.6997 30.4223L84.4084 29.7694L83.9002 28.9507L81.1804 24.5688L80.1891 22.9715L79.1996 24.5699L63.5483 49.8531C63.261 50.3172 62.8599 50.7002 62.3831 50.9658C61.9062 51.2314 61.3695 51.3708 60.8237 51.3708H51.3499H50.4465L50.2214 52.2456C47.7636 61.795 39.0935 68.8498 28.7789 68.8498C16.5072 68.8498 6.56701 58.8658 6.6388 46.5774C6.7097 34.4339 16.6894 24.5403 28.8337 24.5697ZM28.8337 24.5697L28.8366 23.4044M28.8337 24.5697L28.8366 23.4044M28.8366 23.4044C31.5837 23.4112 34.2185 23.8942 36.6642 24.7736L51.3499 52.5361C48.7628 62.5878 39.638 70.015 28.7789 70.015C15.8613 70.015 5.39799 59.5056 5.47355 46.5706C5.5482 33.7848 16.0505 23.3735 28.8366 23.4044ZM87.8133 35.2549L88.6503 36.6034L96.7404 49.6373L95.7503 50.2518L96.7404 49.6373C97.2494 50.4574 98.3269 50.7096 99.1472 50.2005L99.7155 51.1161L99.1473 50.2005L101.622 48.6643C102.443 48.1552 102.695 47.0777 102.186 46.2576L102.186 46.2575L94.0891 33.2133L93.2516 31.8638L94.7902 31.4699C96.066 31.1432 97.3778 30.9782 98.6948 30.9788L87.8133 35.2549ZM87.8133 35.2549L86.7774 36.4574M87.8133 35.2549L86.7774 36.4574M86.7774 36.4574C84.2813 39.3549 82.8158 43.1713 82.9755 47.3246C83.2859 55.4023 89.7742 61.9925 97.8481 62.4184M86.7774 36.4574L97.8481 62.4184M97.8481 62.4184C106.905 62.8965 114.426 55.6654 114.426 46.7099C114.426 38.035 107.37 30.9791 98.6954 30.9788L97.8481 62.4184ZM40.3312 36.0456L39.2912 34.9198L38.4845 36.223L34.1759 43.1833L33.0749 44.9618H35.1667H43.0515H44.4783L44.1933 43.5639C43.6089 40.6963 42.242 38.1139 40.3312 36.0456ZM32.8829 33.0957L33.7495 31.6959L32.1411 31.344C31.0586 31.1072 29.9342 30.9787 28.7789 30.9787C20.1037 30.9787 13.0478 38.0346 13.0478 46.7097C13.0478 55.3849 20.1037 62.4408 28.7789 62.4408C35.2205 62.4408 40.7615 58.5496 43.1921 53.0038L43.9077 51.3708H42.1248H27.3223C24.815 51.3708 23.2789 48.6098 24.5976 46.4798L24.5977 46.4797L32.8829 33.0957ZM58.3893 44.9618H59.0385L59.3801 44.4099L72.9056 22.5612L74.0066 20.7826H71.9148H48.692H48.0429L47.7012 21.3345L43.1956 28.6127L42.6778 29.4492L43.4156 30.1C47.3661 33.584 50.0623 38.4508 50.7469 43.9408L50.8742 44.9618H51.9032H58.3893Z" stroke="black" stroke-width="2.33053"/>
</svg>
