<svg width="122" height="73" viewBox="0 0 122 73" fill="none" xmlns="http://www.w3.org/2000/svg">
<path d="M94.291 26.2039C91.3099 26.1923 88.4592 26.742 85.8363 27.7506L71.6929 4.96369C71.3008 4.33203 70.754 3.81085 70.1043 3.44946C69.4547 3.08807 68.7235 2.89841 67.98 2.89844H56.3274C54.7184 2.89844 53.4142 4.20262 53.4142 5.8116V8.72476C53.4142 10.3337 54.7184 11.6379 56.3274 11.6379H65.5492L68.2613 16.0077H47.5881V13.0945C47.5881 11.4855 46.2839 10.1813 44.6749 10.1813H28.751C26.3038 10.1813 24.2398 12.184 24.2837 14.6307C24.3259 17.0056 26.2639 18.9208 28.6525 18.9208H37.5242L32.1682 27.5729C29.7224 26.6935 27.0876 26.2105 24.3405 26.2037C11.5544 26.1728 1.05211 36.5841 0.977457 49.3699C0.901897 62.3049 11.3653 72.8144 24.2828 72.8144C35.1419 72.8144 44.2667 65.3871 46.8538 55.3354H56.3276C57.0719 55.3354 57.8038 55.1453 58.454 54.7831C59.1042 54.4209 59.6512 53.8986 60.0429 53.2658L75.6943 27.9826L78.4141 32.3645C73.7794 36.6338 70.879 42.7574 70.8932 49.5589C70.9196 62.0915 81.435 72.6915 93.9671 72.8131C106.823 72.9378 117.305 62.6529 117.501 49.8727C117.699 36.9562 107.209 26.2542 94.291 26.2039ZM34.9792 39.6356C36.7502 41.5527 38.0149 43.9436 38.5554 46.5959H30.6706L34.9792 39.6356ZM24.2828 64.0749C16.2512 64.0749 9.71695 57.5406 9.71695 49.5091C9.71695 41.4775 16.2512 34.9432 24.2828 34.9432C25.3514 34.9432 26.3923 35.0621 27.396 35.2817L19.1108 48.6657C17.3117 51.5714 19.4052 55.3354 22.8262 55.3354H37.6287C35.3765 60.4744 30.2435 64.0749 24.2828 64.0749ZM53.8933 46.5959H47.4071C46.6861 40.814 43.8465 35.6908 39.6903 32.0253L44.1959 24.7472H67.4187L53.8933 46.5959ZM93.4134 64.0541C85.9419 63.6599 79.9311 57.5556 79.6438 50.0791C79.496 46.2336 80.8515 42.7019 83.1642 40.0172L91.2542 53.0511C92.1027 54.4181 93.8986 54.8383 95.2656 53.9899L97.7407 52.4537C99.1077 51.6053 99.5281 49.8093 98.6795 48.4423L90.5831 35.3981C91.7645 35.0956 92.9792 34.9428 94.1987 34.9434C102.23 34.9434 108.765 41.4776 108.765 49.5092C108.764 57.8008 101.8 64.4967 93.4134 64.0541Z" fill="#69DC8A"/>
<path d="M28.8337 24.8739C31.4452 24.8803 33.9477 25.3393 36.27 26.1744L37.1582 26.4937L37.655 25.6912L43.0111 17.0391L44.1121 15.2605H42.0203H33.1486C31.3972 15.2605 29.9758 13.8561 29.9449 12.1148L29.9448 12.1146C29.9133 10.3528 31.4179 8.85149 33.2471 8.85149H49.171C50.1364 8.85149 50.9189 9.63398 50.9189 10.5994V13.5126V14.6778H52.0842H72.7574H74.8521L73.7475 12.8981L71.0353 8.52831L70.6935 7.97755H70.0453H60.8235C59.8581 7.97755 59.0756 7.19507 59.0756 6.22965V3.31648C59.0756 2.35107 59.8581 1.56859 60.8235 1.56859H72.4761C73.0214 1.56857 73.5575 1.70765 74.034 1.97267C74.5104 2.23769 74.9114 2.61989 75.1989 3.08308L89.3423 25.87L89.8507 26.6892L90.7506 26.3431C93.2412 25.3853 95.9487 24.863 98.7825 24.8741C111.051 24.9218 121.02 35.0914 120.832 47.3597C120.646 59.5006 110.687 69.2712 98.4745 69.1528C86.5809 69.0373 76.5796 58.9561 76.5546 47.0614C76.5411 40.6 79.2949 34.784 83.6997 30.7265L84.4084 30.0736L83.9002 29.2549L81.1804 24.873L80.1891 23.2757L79.1996 24.8741L63.5483 50.1573C63.5483 50.1573 63.5483 50.1573 63.5482 50.1573C63.2609 50.6214 62.8599 51.0044 62.3831 51.27C61.9062 51.5356 61.3695 51.675 60.8237 51.675H51.3499H50.4465L50.2214 52.5498C47.7636 62.0992 39.0935 69.154 28.7789 69.154C16.5072 69.154 6.56701 59.17 6.6388 46.8816C6.7097 34.7381 16.6894 24.8445 28.8337 24.8739ZM28.8337 24.8739L28.8366 23.7086M28.8337 24.8739L28.8366 23.7086M28.8366 23.7086C31.5837 23.7154 34.2185 24.1984 36.6642 25.0778L51.3499 52.8403C48.7628 62.892 39.638 70.3192 28.7789 70.3192C15.8613 70.3192 5.39799 59.8098 5.47355 46.8748C5.5482 34.089 16.0505 23.6777 28.8366 23.7086ZM71.386 13.5126H53.2494H52.0842V12.3473V10.5994C52.0842 8.99042 50.78 7.68623 49.171 7.68623H33.2471C30.7999 7.68623 28.7359 9.68885 28.7798 12.1355L71.386 13.5126ZM71.386 13.5126L71.7674 14.1271L72.7574 13.5126V12.3473H72.0342L70.0453 9.14281H60.8235C59.2145 9.14281 57.9103 7.83862 57.9103 6.22965V3.31648C57.9103 1.70751 59.2145 0.40332 60.8235 0.40332H72.4761C73.2196 0.403295 73.9507 0.592951 74.6004 0.954343C75.2501 1.31574 75.7969 1.83692 76.189 2.46857L90.3324 25.2555C92.9553 24.2468 95.806 23.6972 98.7871 23.7088C111.705 23.7591 122.195 34.4611 121.997 47.3775C121.801 60.1578 111.319 70.4427 98.4632 70.318C85.9311 70.1964 75.4157 59.5964 75.3893 47.0638C75.3751 40.2623 78.2755 34.1387 82.9102 29.8694L80.8765 26.5929L81.1812 26.1008L71.386 13.5126ZM87.8133 35.5591L88.6503 36.9076L96.7404 49.9415L95.7503 50.556L96.7404 49.9415C97.2494 50.7616 98.3269 51.0138 99.1472 50.5047L99.7617 51.4947L99.1473 50.5047L101.622 48.9685C102.443 48.4594 102.695 47.3819 102.186 46.5618L102.186 46.5617L94.0891 33.5175L93.2516 32.168L94.7901 31.7741C96.066 31.4474 97.3778 31.2824 98.6948 31.283L87.8133 35.5591ZM87.8133 35.5591L86.7774 36.7616M87.8133 35.5591L86.7774 36.7616M86.7774 36.7616C84.2813 39.6591 82.8158 43.4755 82.9755 47.6288C83.2859 55.7065 89.7742 62.2967 97.8481 62.7226M86.7774 36.7616L97.8481 62.7226M97.8481 62.7226C106.905 63.2007 114.426 55.9696 114.426 47.0141C114.426 38.3392 107.37 31.2833 98.6954 31.283L97.8481 62.7226ZM40.3312 36.3498L39.2912 35.224L38.4845 36.5272L34.1759 43.4874L33.0749 45.266H35.1667H43.0515H44.4783L44.1933 43.8681C43.6089 41.0005 42.242 38.4181 40.3312 36.3498ZM32.8829 33.3999L33.7495 32.0001L32.1411 31.6482C31.0586 31.4114 29.9342 31.2829 28.7789 31.2829C20.1037 31.2829 13.0478 38.3388 13.0478 47.0139C13.0478 55.6891 20.1037 62.745 28.7789 62.745C35.2205 62.745 40.7615 58.8538 43.1921 53.308L43.9077 51.675H42.1248H27.3223C24.815 51.675 23.2789 48.914 24.5976 46.784L24.5977 46.7839L32.8829 33.3999ZM58.3893 45.266H59.0385L59.3801 44.7141L72.9056 22.8654L74.0066 21.0868H71.9148H48.692H48.0429L47.7012 21.6387L43.1956 28.9169L42.6778 29.7534L43.4156 30.4042C47.3661 33.8882 50.0623 38.755 50.7469 44.245L50.8742 45.266H51.9032H58.3893Z" stroke="black" stroke-width="2.33053"/>
</svg>
