<svg width="106" height="84" viewBox="0 0 106 84" fill="none" xmlns="http://www.w3.org/2000/svg">
<path d="M98.8594 32.1454H77.0633V5.22087C77.0633 3.09576 75.3421 1.37451 73.217 1.37451H50.1389C48.0137 1.37451 46.2925 3.09576 46.2925 5.22087V16.7599H36.0355V3.93875C36.0355 2.52201 34.8881 1.37451 33.4713 1.37451H30.9071C29.4903 1.37451 28.3428 2.52201 28.3428 3.93875V16.7599H18.0859V3.93875C18.0859 2.52201 16.9384 1.37451 15.5217 1.37451H12.9574C11.5407 1.37451 10.3932 2.52201 10.3932 3.93875V16.7599H3.98259C1.85747 16.7599 0.13623 18.4812 0.13623 20.6063V78.3016C0.13623 81.1335 2.43283 83.4301 5.2647 83.4301H97.5772C100.409 83.4301 102.706 81.1335 102.706 78.3016V35.9917C102.706 33.8666 100.983 32.1454 98.8594 32.1454ZM20.6501 66.1215C20.6501 67.184 19.7895 68.0447 18.7269 68.0447H12.3164C11.2538 68.0447 10.3932 67.184 10.3932 66.1215V59.7109C10.3932 58.6483 11.2538 57.7877 12.3164 57.7877H18.7269C19.7895 57.7877 20.6501 58.6483 20.6501 59.7109V66.1215ZM20.6501 50.7361C20.6501 51.7986 19.7895 52.6592 18.7269 52.6592H12.3164C11.2538 52.6592 10.3932 51.7986 10.3932 50.7361V44.3255C10.3932 43.2629 11.2538 42.4023 12.3164 42.4023H18.7269C19.7895 42.4023 20.6501 43.2629 20.6501 44.3255V50.7361ZM20.6501 35.3507C20.6501 36.4132 19.7895 37.2738 18.7269 37.2738H12.3164C11.2538 37.2738 10.3932 36.4132 10.3932 35.3507V28.9401C10.3932 27.8775 11.2538 27.0169 12.3164 27.0169H18.7269C19.7895 27.0169 20.6501 27.8775 20.6501 28.9401V35.3507ZM41.164 66.1215C41.164 67.184 40.3034 68.0447 39.2408 68.0447H32.8302C31.7677 68.0447 30.9071 67.184 30.9071 66.1215V59.7109C30.9071 58.6483 31.7677 57.7877 32.8302 57.7877H39.2408C40.3034 57.7877 41.164 58.6483 41.164 59.7109V66.1215ZM41.164 50.7361C41.164 51.7986 40.3034 52.6592 39.2408 52.6592H32.8302C31.7677 52.6592 30.9071 51.7986 30.9071 50.7361V44.3255C30.9071 43.2629 31.7677 42.4023 32.8302 42.4023H39.2408C40.3034 42.4023 41.164 43.2629 41.164 44.3255V50.7361ZM41.164 35.3507C41.164 36.4132 40.3034 37.2738 39.2408 37.2738H32.8302C31.7677 37.2738 30.9071 36.4132 30.9071 35.3507V28.9401C30.9071 27.8775 31.7677 27.0169 32.8302 27.0169H39.2408C40.3034 27.0169 41.164 27.8775 41.164 28.9401V35.3507ZM66.8064 50.7361C66.8064 51.7986 65.9458 52.6592 64.8832 52.6592H58.4726C57.4101 52.6592 56.5494 51.7986 56.5494 50.7361V44.3255C56.5494 43.2629 57.4101 42.4023 58.4726 42.4023H64.8832C65.9458 42.4023 66.8064 43.2629 66.8064 44.3255V50.7361ZM66.8064 35.3507C66.8064 36.4132 65.9458 37.2738 64.8832 37.2738H58.4726C57.4101 37.2738 56.5494 36.4132 56.5494 35.3507V28.9401C56.5494 27.8775 57.4101 27.0169 58.4726 27.0169H64.8832C65.9458 27.0169 66.8064 27.8775 66.8064 28.9401V35.3507ZM66.8064 19.9652C66.8064 21.0278 65.9458 21.8884 64.8832 21.8884H58.4726C57.4101 21.8884 56.5494 21.0278 56.5494 19.9652V13.5546C56.5494 12.4921 57.4101 11.6315 58.4726 11.6315H64.8832C65.9458 11.6315 66.8064 12.4921 66.8064 13.5546V19.9652ZM92.4488 66.1215C92.4488 67.184 91.5881 68.0447 90.5256 68.0447H84.115C83.0524 68.0447 82.1918 67.184 82.1918 66.1215V59.7109C82.1918 58.6483 83.0524 57.7877 84.115 57.7877H90.5256C91.5881 57.7877 92.4488 58.6483 92.4488 59.7109V66.1215ZM92.4488 50.7361C92.4488 51.7986 91.5881 52.6592 90.5256 52.6592H84.115C83.0524 52.6592 82.1918 51.7986 82.1918 50.7361V44.3255C82.1918 43.2629 83.0524 42.4023 84.115 42.4023H90.5256C91.5881 42.4023 92.4488 43.2629 92.4488 44.3255V50.7361Z" fill="#41C2F4"/>
<mask id="path-2-inside-1_214_338" fill="white">
<path d="M101.761 30.4069H80.4881V4.12855C80.4881 2.05445 78.8082 0.374512 76.734 0.374512H54.2098C52.1357 0.374512 50.4557 2.05445 50.4557 4.12855V15.3907H40.445V2.87721C40.445 1.49447 39.325 0.374512 37.9423 0.374512H35.4396C34.0568 0.374512 32.9369 1.49447 32.9369 2.87721V15.3907H22.9261V2.87721C22.9261 1.49447 21.8061 0.374512 20.4234 0.374512H17.9207C16.538 0.374512 15.418 1.49447 15.418 2.87721V15.3907H9.16127C7.08716 15.3907 5.40723 17.0706 5.40723 19.1447V75.4554C5.40723 78.2193 7.6487 80.4608 10.4126 80.4608H100.51C103.274 80.4608 105.515 78.2193 105.515 75.4554V34.1609C105.515 32.0868 103.834 30.4069 101.761 30.4069ZM25.4288 63.5676C25.4288 64.6046 24.5888 65.4446 23.5518 65.4446H17.295C16.258 65.4446 15.418 64.6046 15.418 63.5676V57.3108C15.418 56.2738 16.258 55.4338 17.295 55.4338H23.5518C24.5888 55.4338 25.4288 56.2738 25.4288 57.3108V63.5676ZM25.4288 48.5514C25.4288 49.5885 24.5888 50.4284 23.5518 50.4284H17.295C16.258 50.4284 15.418 49.5885 15.418 48.5514V42.2947C15.418 41.2576 16.258 40.4176 17.295 40.4176H23.5518C24.5888 40.4176 25.4288 41.2576 25.4288 42.2947V48.5514ZM25.4288 33.5352C25.4288 34.5723 24.5888 35.4122 23.5518 35.4122H17.295C16.258 35.4122 15.418 34.5723 15.418 33.5352V27.2785C15.418 26.2414 16.258 25.4015 17.295 25.4015H23.5518C24.5888 25.4015 25.4288 26.2414 25.4288 27.2785V33.5352ZM45.4503 63.5676C45.4503 64.6046 44.6104 65.4446 43.5733 65.4446H37.3166C36.2795 65.4446 35.4396 64.6046 35.4396 63.5676V57.3108C35.4396 56.2738 36.2795 55.4338 37.3166 55.4338H43.5733C44.6104 55.4338 45.4503 56.2738 45.4503 57.3108V63.5676ZM45.4503 48.5514C45.4503 49.5885 44.6104 50.4284 43.5733 50.4284H37.3166C36.2795 50.4284 35.4396 49.5885 35.4396 48.5514V42.2947C35.4396 41.2576 36.2795 40.4176 37.3166 40.4176H43.5733C44.6104 40.4176 45.4503 41.2576 45.4503 42.2947V48.5514ZM45.4503 33.5352C45.4503 34.5723 44.6104 35.4122 43.5733 35.4122H37.3166C36.2795 35.4122 35.4396 34.5723 35.4396 33.5352V27.2785C35.4396 26.2414 36.2795 25.4015 37.3166 25.4015H43.5733C44.6104 25.4015 45.4503 26.2414 45.4503 27.2785V33.5352ZM70.4773 48.5514C70.4773 49.5885 69.6373 50.4284 68.6003 50.4284H62.3435C61.3065 50.4284 60.4665 49.5885 60.4665 48.5514V42.2947C60.4665 41.2576 61.3065 40.4176 62.3435 40.4176H68.6003C69.6373 40.4176 70.4773 41.2576 70.4773 42.2947V48.5514ZM70.4773 33.5352C70.4773 34.5723 69.6373 35.4122 68.6003 35.4122H62.3435C61.3065 35.4122 60.4665 34.5723 60.4665 33.5352V27.2785C60.4665 26.2414 61.3065 25.4015 62.3435 25.4015H68.6003C69.6373 25.4015 70.4773 26.2414 70.4773 27.2785V33.5352ZM70.4773 18.5191C70.4773 19.5561 69.6373 20.3961 68.6003 20.3961H62.3435C61.3065 20.3961 60.4665 19.5561 60.4665 18.5191V12.2623C60.4665 11.2253 61.3065 10.3853 62.3435 10.3853H68.6003C69.6373 10.3853 70.4773 11.2253 70.4773 12.2623V18.5191ZM95.5043 63.5676C95.5043 64.6046 94.6643 65.4446 93.6272 65.4446H87.3705C86.3334 65.4446 85.4935 64.6046 85.4935 63.5676V57.3108C85.4935 56.2738 86.3334 55.4338 87.3705 55.4338H93.6272C94.6643 55.4338 95.5043 56.2738 95.5043 57.3108V63.5676ZM95.5043 48.5514C95.5043 49.5885 94.6643 50.4284 93.6272 50.4284H87.3705C86.3334 50.4284 85.4935 49.5885 85.4935 48.5514V42.2947C85.4935 41.2576 86.3334 40.4176 87.3705 40.4176H93.6272C94.6643 40.4176 95.5043 41.2576 95.5043 42.2947V48.5514Z"/>
</mask>
<path d="M101.761 30.4069H80.4881V4.12855C80.4881 2.05445 78.8082 0.374512 76.734 0.374512H54.2098C52.1357 0.374512 50.4557 2.05445 50.4557 4.12855V15.3907H40.445V2.87721C40.445 1.49447 39.325 0.374512 37.9423 0.374512H35.4396C34.0568 0.374512 32.9369 1.49447 32.9369 2.87721V15.3907H22.9261V2.87721C22.9261 1.49447 21.8061 0.374512 20.4234 0.374512H17.9207C16.538 0.374512 15.418 1.49447 15.418 2.87721V15.3907H9.16127C7.08716 15.3907 5.40723 17.0706 5.40723 19.1447V75.4554C5.40723 78.2193 7.6487 80.4608 10.4126 80.4608H100.51C103.274 80.4608 105.515 78.2193 105.515 75.4554V34.1609C105.515 32.0868 103.834 30.4069 101.761 30.4069ZM25.4288 63.5676C25.4288 64.6046 24.5888 65.4446 23.5518 65.4446H17.295C16.258 65.4446 15.418 64.6046 15.418 63.5676V57.3108C15.418 56.2738 16.258 55.4338 17.295 55.4338H23.5518C24.5888 55.4338 25.4288 56.2738 25.4288 57.3108V63.5676ZM25.4288 48.5514C25.4288 49.5885 24.5888 50.4284 23.5518 50.4284H17.295C16.258 50.4284 15.418 49.5885 15.418 48.5514V42.2947C15.418 41.2576 16.258 40.4176 17.295 40.4176H23.5518C24.5888 40.4176 25.4288 41.2576 25.4288 42.2947V48.5514ZM25.4288 33.5352C25.4288 34.5723 24.5888 35.4122 23.5518 35.4122H17.295C16.258 35.4122 15.418 34.5723 15.418 33.5352V27.2785C15.418 26.2414 16.258 25.4015 17.295 25.4015H23.5518C24.5888 25.4015 25.4288 26.2414 25.4288 27.2785V33.5352ZM45.4503 63.5676C45.4503 64.6046 44.6104 65.4446 43.5733 65.4446H37.3166C36.2795 65.4446 35.4396 64.6046 35.4396 63.5676V57.3108C35.4396 56.2738 36.2795 55.4338 37.3166 55.4338H43.5733C44.6104 55.4338 45.4503 56.2738 45.4503 57.3108V63.5676ZM45.4503 48.5514C45.4503 49.5885 44.6104 50.4284 43.5733 50.4284H37.3166C36.2795 50.4284 35.4396 49.5885 35.4396 48.5514V42.2947C35.4396 41.2576 36.2795 40.4176 37.3166 40.4176H43.5733C44.6104 40.4176 45.4503 41.2576 45.4503 42.2947V48.5514ZM45.4503 33.5352C45.4503 34.5723 44.6104 35.4122 43.5733 35.4122H37.3166C36.2795 35.4122 35.4396 34.5723 35.4396 33.5352V27.2785C35.4396 26.2414 36.2795 25.4015 37.3166 25.4015H43.5733C44.6104 25.4015 45.4503 26.2414 45.4503 27.2785V33.5352ZM70.4773 48.5514C70.4773 49.5885 69.6373 50.4284 68.6003 50.4284H62.3435C61.3065 50.4284 60.4665 49.5885 60.4665 48.5514V42.2947C60.4665 41.2576 61.3065 40.4176 62.3435 40.4176H68.6003C69.6373 40.4176 70.4773 41.2576 70.4773 42.2947V48.5514ZM70.4773 33.5352C70.4773 34.5723 69.6373 35.4122 68.6003 35.4122H62.3435C61.3065 35.4122 60.4665 34.5723 60.4665 33.5352V27.2785C60.4665 26.2414 61.3065 25.4015 62.3435 25.4015H68.6003C69.6373 25.4015 70.4773 26.2414 70.4773 27.2785V33.5352ZM70.4773 18.5191C70.4773 19.5561 69.6373 20.3961 68.6003 20.3961H62.3435C61.3065 20.3961 60.4665 19.5561 60.4665 18.5191V12.2623C60.4665 11.2253 61.3065 10.3853 62.3435 10.3853H68.6003C69.6373 10.3853 70.4773 11.2253 70.4773 12.2623V18.5191ZM95.5043 63.5676C95.5043 64.6046 94.6643 65.4446 93.6272 65.4446H87.3705C86.3334 65.4446 85.4935 64.6046 85.4935 63.5676V57.3108C85.4935 56.2738 86.3334 55.4338 87.3705 55.4338H93.6272C94.6643 55.4338 95.5043 56.2738 95.5043 57.3108V63.5676ZM95.5043 48.5514C95.5043 49.5885 94.6643 50.4284 93.6272 50.4284H87.3705C86.3334 50.4284 85.4935 49.5885 85.4935 48.5514V42.2947C85.4935 41.2576 86.3334 40.4176 87.3705 40.4176H93.6272C94.6643 40.4176 95.5043 41.2576 95.5043 42.2947V48.5514Z" stroke="black" stroke-width="4" mask="url(#path-2-inside-1_214_338)"/>
</svg>
