<svg width="106" height="84" viewBox="0 0 106 84" fill="none" xmlns="http://www.w3.org/2000/svg">
<path d="M98.8594 32.4496H77.0633V5.52507C77.0633 3.39996 75.3421 1.67871 73.217 1.67871H50.1389C48.0137 1.67871 46.2925 3.39996 46.2925 5.52507V17.0641H36.0355V4.24295C36.0355 2.82621 34.8881 1.67871 33.4713 1.67871H30.9071C29.4903 1.67871 28.3428 2.82621 28.3428 4.24295V17.0641H18.0859V4.24295C18.0859 2.82621 16.9384 1.67871 15.5217 1.67871H12.9574C11.5407 1.67871 10.3932 2.82621 10.3932 4.24295V17.0641H3.98259C1.85747 17.0641 0.13623 18.7854 0.13623 20.9105V78.6058C0.13623 81.4377 2.43283 83.7343 5.2647 83.7343H97.5772C100.409 83.7343 102.706 81.4377 102.706 78.6058V36.2959C102.706 34.1708 100.983 32.4496 98.8594 32.4496ZM20.6501 66.4257C20.6501 67.4882 19.7895 68.3489 18.7269 68.3489H12.3164C11.2538 68.3489 10.3932 67.4882 10.3932 66.4257V60.0151C10.3932 58.9525 11.2538 58.0919 12.3164 58.0919H18.7269C19.7895 58.0919 20.6501 58.9525 20.6501 60.0151V66.4257ZM20.6501 51.0403C20.6501 52.1028 19.7895 52.9634 18.7269 52.9634H12.3164C11.2538 52.9634 10.3932 52.1028 10.3932 51.0403V44.6297C10.3932 43.5671 11.2538 42.7065 12.3164 42.7065H18.7269C19.7895 42.7065 20.6501 43.5671 20.6501 44.6297V51.0403ZM20.6501 35.6549C20.6501 36.7174 19.7895 37.578 18.7269 37.578H12.3164C11.2538 37.578 10.3932 36.7174 10.3932 35.6549V29.2443C10.3932 28.1817 11.2538 27.3211 12.3164 27.3211H18.7269C19.7895 27.3211 20.6501 28.1817 20.6501 29.2443V35.6549ZM41.164 66.4257C41.164 67.4882 40.3034 68.3489 39.2408 68.3489H32.8302C31.7677 68.3489 30.9071 67.4882 30.9071 66.4257V60.0151C30.9071 58.9525 31.7677 58.0919 32.8302 58.0919H39.2408C40.3034 58.0919 41.164 58.9525 41.164 60.0151V66.4257ZM41.164 51.0403C41.164 52.1028 40.3034 52.9634 39.2408 52.9634H32.8302C31.7677 52.9634 30.9071 52.1028 30.9071 51.0403V44.6297C30.9071 43.5671 31.7677 42.7065 32.8302 42.7065H39.2408C40.3034 42.7065 41.164 43.5671 41.164 44.6297V51.0403ZM41.164 35.6549C41.164 36.7174 40.3034 37.578 39.2408 37.578H32.8302C31.7677 37.578 30.9071 36.7174 30.9071 35.6549V29.2443C30.9071 28.1817 31.7677 27.3211 32.8302 27.3211H39.2408C40.3034 27.3211 41.164 28.1817 41.164 29.2443V35.6549ZM66.8064 51.0403C66.8064 52.1028 65.9458 52.9634 64.8832 52.9634H58.4726C57.4101 52.9634 56.5494 52.1028 56.5494 51.0403V44.6297C56.5494 43.5671 57.4101 42.7065 58.4726 42.7065H64.8832C65.9458 42.7065 66.8064 43.5671 66.8064 44.6297V51.0403ZM66.8064 35.6549C66.8064 36.7174 65.9458 37.578 64.8832 37.578H58.4726C57.4101 37.578 56.5494 36.7174 56.5494 35.6549V29.2443C56.5494 28.1817 57.4101 27.3211 58.4726 27.3211H64.8832C65.9458 27.3211 66.8064 28.1817 66.8064 29.2443V35.6549ZM66.8064 20.2694C66.8064 21.332 65.9458 22.1926 64.8832 22.1926H58.4726C57.4101 22.1926 56.5494 21.332 56.5494 20.2694V13.8588C56.5494 12.7963 57.4101 11.9357 58.4726 11.9357H64.8832C65.9458 11.9357 66.8064 12.7963 66.8064 13.8588V20.2694ZM92.4488 66.4257C92.4488 67.4882 91.5881 68.3489 90.5256 68.3489H84.115C83.0524 68.3489 82.1918 67.4882 82.1918 66.4257V60.0151C82.1918 58.9525 83.0524 58.0919 84.115 58.0919H90.5256C91.5881 58.0919 92.4488 58.9525 92.4488 60.0151V66.4257ZM92.4488 51.0403C92.4488 52.1028 91.5881 52.9634 90.5256 52.9634H84.115C83.0524 52.9634 82.1918 52.1028 82.1918 51.0403V44.6297C82.1918 43.5671 83.0524 42.7065 84.115 42.7065H90.5256C91.5881 42.7065 92.4488 43.5671 92.4488 44.6297V51.0403Z" fill="#69DC8A" fill-opacity="0.9"/>
<mask id="path-2-inside-1_214_335" fill="white">
<path d="M101.761 30.7111H80.4881V4.43275C80.4881 2.35865 78.8082 0.678711 76.734 0.678711H54.2098C52.1357 0.678711 50.4557 2.35865 50.4557 4.43275V15.6949H40.445V3.18141C40.445 1.79867 39.325 0.678711 37.9423 0.678711H35.4396C34.0568 0.678711 32.9369 1.79867 32.9369 3.18141V15.6949H22.9261V3.18141C22.9261 1.79867 21.8061 0.678711 20.4234 0.678711H17.9207C16.538 0.678711 15.418 1.79867 15.418 3.18141V15.6949H9.16127C7.08716 15.6949 5.40723 17.3748 5.40723 19.4489V75.7596C5.40723 78.5235 7.6487 80.765 10.4126 80.765H100.51C103.274 80.765 105.515 78.5235 105.515 75.7596V34.4651C105.515 32.391 103.834 30.7111 101.761 30.7111ZM25.4288 63.8718C25.4288 64.9088 24.5888 65.7488 23.5518 65.7488H17.295C16.258 65.7488 15.418 64.9088 15.418 63.8718V57.615C15.418 56.578 16.258 55.738 17.295 55.738H23.5518C24.5888 55.738 25.4288 56.578 25.4288 57.615V63.8718ZM25.4288 48.8556C25.4288 49.8927 24.5888 50.7326 23.5518 50.7326H17.295C16.258 50.7326 15.418 49.8927 15.418 48.8556V42.5989C15.418 41.5618 16.258 40.7218 17.295 40.7218H23.5518C24.5888 40.7218 25.4288 41.5618 25.4288 42.5989V48.8556ZM25.4288 33.8394C25.4288 34.8765 24.5888 35.7164 23.5518 35.7164H17.295C16.258 35.7164 15.418 34.8765 15.418 33.8394V27.5827C15.418 26.5456 16.258 25.7057 17.295 25.7057H23.5518C24.5888 25.7057 25.4288 26.5456 25.4288 27.5827V33.8394ZM45.4503 63.8718C45.4503 64.9088 44.6104 65.7488 43.5733 65.7488H37.3166C36.2795 65.7488 35.4396 64.9088 35.4396 63.8718V57.615C35.4396 56.578 36.2795 55.738 37.3166 55.738H43.5733C44.6104 55.738 45.4503 56.578 45.4503 57.615V63.8718ZM45.4503 48.8556C45.4503 49.8927 44.6104 50.7326 43.5733 50.7326H37.3166C36.2795 50.7326 35.4396 49.8927 35.4396 48.8556V42.5989C35.4396 41.5618 36.2795 40.7218 37.3166 40.7218H43.5733C44.6104 40.7218 45.4503 41.5618 45.4503 42.5989V48.8556ZM45.4503 33.8394C45.4503 34.8765 44.6104 35.7164 43.5733 35.7164H37.3166C36.2795 35.7164 35.4396 34.8765 35.4396 33.8394V27.5827C35.4396 26.5456 36.2795 25.7057 37.3166 25.7057H43.5733C44.6104 25.7057 45.4503 26.5456 45.4503 27.5827V33.8394ZM70.4773 48.8556C70.4773 49.8927 69.6373 50.7326 68.6003 50.7326H62.3435C61.3065 50.7326 60.4665 49.8927 60.4665 48.8556V42.5989C60.4665 41.5618 61.3065 40.7218 62.3435 40.7218H68.6003C69.6373 40.7218 70.4773 41.5618 70.4773 42.5989V48.8556ZM70.4773 33.8394C70.4773 34.8765 69.6373 35.7164 68.6003 35.7164H62.3435C61.3065 35.7164 60.4665 34.8765 60.4665 33.8394V27.5827C60.4665 26.5456 61.3065 25.7057 62.3435 25.7057H68.6003C69.6373 25.7057 70.4773 26.5456 70.4773 27.5827V33.8394ZM70.4773 18.8233C70.4773 19.8603 69.6373 20.7003 68.6003 20.7003H62.3435C61.3065 20.7003 60.4665 19.8603 60.4665 18.8233V12.5665C60.4665 11.5295 61.3065 10.6895 62.3435 10.6895H68.6003C69.6373 10.6895 70.4773 11.5295 70.4773 12.5665V18.8233ZM95.5043 63.8718C95.5043 64.9088 94.6643 65.7488 93.6272 65.7488H87.3705C86.3334 65.7488 85.4935 64.9088 85.4935 63.8718V57.615C85.4935 56.578 86.3334 55.738 87.3705 55.738H93.6272C94.6643 55.738 95.5043 56.578 95.5043 57.615V63.8718ZM95.5043 48.8556C95.5043 49.8927 94.6643 50.7326 93.6272 50.7326H87.3705C86.3334 50.7326 85.4935 49.8927 85.4935 48.8556V42.5989C85.4935 41.5618 86.3334 40.7218 87.3705 40.7218H93.6272C94.6643 40.7218 95.5043 41.5618 95.5043 42.5989V48.8556Z"/>
</mask>
<path d="M101.761 30.7111H80.4881V4.43275C80.4881 2.35865 78.8082 0.678711 76.734 0.678711H54.2098C52.1357 0.678711 50.4557 2.35865 50.4557 4.43275V15.6949H40.445V3.18141C40.445 1.79867 39.325 0.678711 37.9423 0.678711H35.4396C34.0568 0.678711 32.9369 1.79867 32.9369 3.18141V15.6949H22.9261V3.18141C22.9261 1.79867 21.8061 0.678711 20.4234 0.678711H17.9207C16.538 0.678711 15.418 1.79867 15.418 3.18141V15.6949H9.16127C7.08716 15.6949 5.40723 17.3748 5.40723 19.4489V75.7596C5.40723 78.5235 7.6487 80.765 10.4126 80.765H100.51C103.274 80.765 105.515 78.5235 105.515 75.7596V34.4651C105.515 32.391 103.834 30.7111 101.761 30.7111ZM25.4288 63.8718C25.4288 64.9088 24.5888 65.7488 23.5518 65.7488H17.295C16.258 65.7488 15.418 64.9088 15.418 63.8718V57.615C15.418 56.578 16.258 55.738 17.295 55.738H23.5518C24.5888 55.738 25.4288 56.578 25.4288 57.615V63.8718ZM25.4288 48.8556C25.4288 49.8927 24.5888 50.7326 23.5518 50.7326H17.295C16.258 50.7326 15.418 49.8927 15.418 48.8556V42.5989C15.418 41.5618 16.258 40.7218 17.295 40.7218H23.5518C24.5888 40.7218 25.4288 41.5618 25.4288 42.5989V48.8556ZM25.4288 33.8394C25.4288 34.8765 24.5888 35.7164 23.5518 35.7164H17.295C16.258 35.7164 15.418 34.8765 15.418 33.8394V27.5827C15.418 26.5456 16.258 25.7057 17.295 25.7057H23.5518C24.5888 25.7057 25.4288 26.5456 25.4288 27.5827V33.8394ZM45.4503 63.8718C45.4503 64.9088 44.6104 65.7488 43.5733 65.7488H37.3166C36.2795 65.7488 35.4396 64.9088 35.4396 63.8718V57.615C35.4396 56.578 36.2795 55.738 37.3166 55.738H43.5733C44.6104 55.738 45.4503 56.578 45.4503 57.615V63.8718ZM45.4503 48.8556C45.4503 49.8927 44.6104 50.7326 43.5733 50.7326H37.3166C36.2795 50.7326 35.4396 49.8927 35.4396 48.8556V42.5989C35.4396 41.5618 36.2795 40.7218 37.3166 40.7218H43.5733C44.6104 40.7218 45.4503 41.5618 45.4503 42.5989V48.8556ZM45.4503 33.8394C45.4503 34.8765 44.6104 35.7164 43.5733 35.7164H37.3166C36.2795 35.7164 35.4396 34.8765 35.4396 33.8394V27.5827C35.4396 26.5456 36.2795 25.7057 37.3166 25.7057H43.5733C44.6104 25.7057 45.4503 26.5456 45.4503 27.5827V33.8394ZM70.4773 48.8556C70.4773 49.8927 69.6373 50.7326 68.6003 50.7326H62.3435C61.3065 50.7326 60.4665 49.8927 60.4665 48.8556V42.5989C60.4665 41.5618 61.3065 40.7218 62.3435 40.7218H68.6003C69.6373 40.7218 70.4773 41.5618 70.4773 42.5989V48.8556ZM70.4773 33.8394C70.4773 34.8765 69.6373 35.7164 68.6003 35.7164H62.3435C61.3065 35.7164 60.4665 34.8765 60.4665 33.8394V27.5827C60.4665 26.5456 61.3065 25.7057 62.3435 25.7057H68.6003C69.6373 25.7057 70.4773 26.5456 70.4773 27.5827V33.8394ZM70.4773 18.8233C70.4773 19.8603 69.6373 20.7003 68.6003 20.7003H62.3435C61.3065 20.7003 60.4665 19.8603 60.4665 18.8233V12.5665C60.4665 11.5295 61.3065 10.6895 62.3435 10.6895H68.6003C69.6373 10.6895 70.4773 11.5295 70.4773 12.5665V18.8233ZM95.5043 63.8718C95.5043 64.9088 94.6643 65.7488 93.6272 65.7488H87.3705C86.3334 65.7488 85.4935 64.9088 85.4935 63.8718V57.615C85.4935 56.578 86.3334 55.738 87.3705 55.738H93.6272C94.6643 55.738 95.5043 56.578 95.5043 57.615V63.8718ZM95.5043 48.8556C95.5043 49.8927 94.6643 50.7326 93.6272 50.7326H87.3705C86.3334 50.7326 85.4935 49.8927 85.4935 48.8556V42.5989C85.4935 41.5618 86.3334 40.7218 87.3705 40.7218H93.6272C94.6643 40.7218 95.5043 41.5618 95.5043 42.5989V48.8556Z" stroke="black" stroke-width="4" mask="url(#path-2-inside-1_214_335)"/>
</svg>
