<svg width="91" height="70" viewBox="0 0 91 70" fill="none" xmlns="http://www.w3.org/2000/svg">
<path d="M84.6971 23.6561H74.6085L71.8045 16.6462C68.923 9.43908 62.0462 4.7832 54.283 4.7832H32.8825C25.121 4.7832 18.2425 9.43908 15.3594 16.6462L12.5554 23.6561H2.46848C1.15243 23.6561 0.186882 24.893 0.507048 26.1686L1.5181 30.2128C1.74221 31.1126 2.55105 31.7445 3.47953 31.7445H6.86149C4.59842 33.7211 3.14083 36.5942 3.14083 39.8329V47.9213C3.14083 50.6376 4.17884 53.0894 5.83696 54.9868V64.098C5.83696 67.0756 8.25168 69.4903 11.2292 69.4903H16.6215C19.599 69.4903 22.0137 67.0756 22.0137 64.098V58.7058H65.1518V64.098C65.1518 67.0756 67.5665 69.4903 70.5441 69.4903H75.9363C78.9139 69.4903 81.3286 67.0756 81.3286 64.098V54.9868C82.9867 53.0911 84.0247 50.6393 84.0247 47.9213V39.8329C84.0247 36.5942 82.5671 33.7211 80.3057 31.7445H83.6877C84.6162 31.7445 85.425 31.1126 85.6491 30.2128L86.6602 26.1686C86.9787 24.893 86.0131 23.6561 84.6971 23.6561ZM25.3721 20.6516C26.6005 17.5814 29.5747 15.5677 32.8825 15.5677H54.283C57.5909 15.5677 60.565 17.5814 61.7934 20.6516L65.1518 29.0484H22.0137L25.3721 20.6516ZM16.6215 47.8876C13.3861 47.8876 11.2292 45.7374 11.2292 42.5122C11.2292 39.2869 13.3861 37.1368 16.6215 37.1368C19.8568 37.1368 24.7099 41.9746 24.7099 45.1999C24.7099 48.4251 19.8568 47.8876 16.6215 47.8876ZM70.5441 47.8876C67.3087 47.8876 62.4557 48.4251 62.4557 45.1999C62.4557 41.9746 67.3087 37.1368 70.5441 37.1368C73.7794 37.1368 75.9363 39.2869 75.9363 42.5122C75.9363 45.7374 73.7794 47.8876 70.5441 47.8876Z" fill="#41C2F4"/>
<path d="M77.4957 19.4348L77.81 20.2206H78.6563H88.7449C89.2479 20.2206 89.6166 20.6934 89.4954 21.1798C89.4953 21.18 89.4953 21.1801 89.4953 21.1802L88.4843 25.224L88.484 25.2251C88.3988 25.5674 88.0907 25.809 87.7355 25.809H84.3536H81.0241L83.531 28.0001C85.5417 29.7577 86.8226 32.2962 86.8226 35.1473V43.2357C86.8226 45.6256 85.9118 47.7905 84.4356 49.4783L84.1264 49.8317V50.3013V59.4125C84.1264 61.6997 82.2714 63.5548 79.9842 63.5548H74.5919C72.3047 63.5548 70.4497 61.6997 70.4497 59.4125V54.0202V52.7702H69.1997H26.0616H24.8116V54.0202V59.4125C24.8116 61.6997 22.9565 63.5548 20.6693 63.5548H15.2771C12.9899 63.5548 11.1348 61.6997 11.1348 59.4125V50.3013V49.8321L10.826 49.4787C9.34932 47.7889 8.43868 45.6238 8.43868 43.2357V35.1473C8.43868 32.2963 9.71946 29.7579 11.7316 28.0004L14.2407 25.809H10.9093H7.52738C7.17229 25.809 6.86414 25.5674 6.77889 25.2251L6.77863 25.224L5.76758 21.1798L5.76729 21.1787C5.64548 20.6934 6.01289 20.2206 6.51633 20.2206H16.6032H17.4495L17.7638 19.4348L20.5678 12.4249C20.5678 12.4249 20.5678 12.4249 20.5678 12.4249C23.2611 5.69241 29.6799 1.34766 36.9304 1.34766H58.3309C65.583 1.34766 72 5.69239 74.6917 12.4247L74.6918 12.4249L77.4957 19.4348ZM28.2594 15.5017L28.2593 15.5019L24.901 23.8986L24.2154 25.6128H26.0616H69.1997H71.0459L70.3603 23.8986L67.0019 15.5019L67.0019 15.5017C65.5836 11.957 62.1498 9.63217 58.3309 9.63217H36.9304C33.1115 9.63217 29.6777 11.957 28.2594 15.5017ZM14.0271 37.8266C14.0271 39.7245 14.6672 41.4026 15.8774 42.6091C17.0873 43.8151 18.7688 44.452 20.6693 44.452C21.0085 44.452 21.387 44.4594 21.7901 44.4672C23.146 44.4935 24.7801 44.5253 26.1317 44.3007C27.026 44.1521 27.9794 43.8694 28.7283 43.2722C29.5413 42.6238 30.0077 41.6879 30.0077 40.5143C30.0077 39.4156 29.6029 38.2939 29.0408 37.2853C28.4701 36.2613 27.687 35.263 26.8093 34.388C25.9316 33.5131 24.9303 32.7326 23.9037 32.164C22.8922 31.6039 21.7688 31.2012 20.6693 31.2012C18.7688 31.2012 17.0873 31.8381 15.8774 33.0442C14.6672 34.2506 14.0271 35.9288 14.0271 37.8266ZM65.2535 40.5143C65.2535 41.6879 65.7199 42.6238 66.533 43.2722C67.2818 43.8694 68.2352 44.1521 69.1296 44.3007C70.4811 44.5253 72.1152 44.4935 73.4711 44.4672C73.8742 44.4594 74.2527 44.452 74.5919 44.452C76.4925 44.452 78.174 43.8151 79.3838 42.6091C80.594 41.4026 81.2342 39.7245 81.2342 37.8266C81.2342 35.9288 80.594 34.2506 79.3838 33.0442C78.174 31.8381 76.4925 31.2012 74.5919 31.2012C73.4925 31.2012 72.369 31.6039 71.3576 32.164C70.3309 32.7326 69.3297 33.5131 68.452 34.388C67.5743 35.263 66.7912 36.2613 66.2205 37.2853C65.6584 38.2939 65.2535 39.4156 65.2535 40.5143Z" stroke="black" stroke-width="2.5"/>
</svg>
