<svg width="91" height="70" viewBox="0 0 91 70" fill="none" xmlns="http://www.w3.org/2000/svg">
<path d="M84.6971 23.9598H74.6085L71.8045 16.9499C68.923 9.74279 62.0462 5.08691 54.283 5.08691H32.8825C25.121 5.08691 18.2425 9.74279 15.3594 16.9499L12.5554 23.9598H2.46848C1.15243 23.9598 0.186882 25.1967 0.507048 26.4723L1.5181 30.5165C1.74221 31.4163 2.55105 32.0482 3.47953 32.0482H6.86149C4.59842 34.0248 3.14083 36.8979 3.14083 40.1366V48.225C3.14083 50.9413 4.17884 53.3931 5.83696 55.2905V64.4018C5.83696 67.3793 8.25168 69.794 11.2292 69.794H16.6215C19.599 69.794 22.0137 67.3793 22.0137 64.4018V59.0095H65.1518V64.4018C65.1518 67.3793 67.5665 69.794 70.5441 69.794H75.9363C78.9139 69.794 81.3286 67.3793 81.3286 64.4018V55.2905C82.9867 53.3948 84.0247 50.943 84.0247 48.225V40.1366C84.0247 36.8979 82.5671 34.0248 80.3057 32.0482H83.6877C84.6162 32.0482 85.425 31.4163 85.6491 30.5165L86.6602 26.4723C86.9787 25.1967 86.0131 23.9598 84.6971 23.9598ZM25.3721 20.9553C26.6005 17.8851 29.5747 15.8714 32.8825 15.8714H54.283C57.5909 15.8714 60.565 17.8851 61.7934 20.9553L65.1518 29.3521H22.0137L25.3721 20.9553ZM16.6215 48.1913C13.3861 48.1913 11.2292 46.0411 11.2292 42.8159C11.2292 39.5906 13.3861 37.4405 16.6215 37.4405C19.8568 37.4405 24.7099 42.2783 24.7099 45.5036C24.7099 48.7288 19.8568 48.1913 16.6215 48.1913ZM70.5441 48.1913C67.3087 48.1913 62.4557 48.7288 62.4557 45.5036C62.4557 42.2783 67.3087 37.4405 70.5441 37.4405C73.7794 37.4405 75.9363 39.5906 75.9363 42.8159C75.9363 46.0411 73.7794 48.1913 70.5441 48.1913Z" fill="#69DC8A" fill-opacity="0.97"/>
<path d="M77.4957 19.7385L77.81 20.5243H78.6563H88.7449C89.2479 20.5243 89.6166 20.9971 89.4954 21.4836C89.4953 21.4837 89.4953 21.4838 89.4953 21.4839L88.4843 25.5278L88.484 25.5288C88.3988 25.8711 88.0907 26.1127 87.7355 26.1127H84.3536H81.0241L83.531 28.3038C85.5417 30.0614 86.8226 32.5999 86.8226 35.451V43.5394C86.8226 45.9293 85.9118 48.0942 84.4356 49.782L84.1264 50.1355V50.605V59.7162C84.1264 62.0034 82.2714 63.8585 79.9842 63.8585H74.5919C72.3047 63.8585 70.4497 62.0034 70.4497 59.7162V54.324V53.074H69.1997H26.0616H24.8116V54.324V59.7162C24.8116 62.0034 22.9565 63.8585 20.6693 63.8585H15.2771C12.9899 63.8585 11.1348 62.0034 11.1348 59.7162V50.605V50.1358L10.826 49.7824C9.34932 48.0926 8.43868 45.9275 8.43868 43.5394V35.451C8.43868 32.6 9.71946 30.0616 11.7316 28.3041L14.2407 26.1127H10.9093H7.52738C7.17229 26.1127 6.86414 25.8711 6.77889 25.5288L6.77863 25.5278L5.76758 21.4836L5.76729 21.4824C5.64548 20.9971 6.01289 20.5243 6.51633 20.5243H16.6032H17.4495L17.7638 19.7385L20.5678 12.7286C20.5678 12.7286 20.5678 12.7286 20.5678 12.7286C23.2611 5.99612 29.6799 1.65137 36.9304 1.65137H58.3309C65.583 1.65137 72 5.9961 74.6917 12.7284L74.6918 12.7286L77.4957 19.7385ZM28.2594 15.8054L28.2593 15.8056L24.901 24.2023L24.2154 25.9165H26.0616H69.1997H71.0459L70.3603 24.2023L67.0019 15.8056L67.0019 15.8054C65.5836 12.2607 62.1498 9.93589 58.3309 9.93589H36.9304C33.1115 9.93589 29.6777 12.2607 28.2594 15.8054ZM14.0271 38.1303C14.0271 40.0282 14.6672 41.7063 15.8774 42.9128C17.0873 44.1188 18.7688 44.7557 20.6693 44.7557C21.0085 44.7557 21.387 44.7631 21.7901 44.7709C23.146 44.7973 24.7801 44.829 26.1317 44.6045C27.026 44.4559 27.9794 44.1731 28.7283 43.5759C29.5413 42.9275 30.0077 41.9916 30.0077 40.818C30.0077 39.7193 29.6029 38.5976 29.0408 37.589C28.4701 36.565 27.687 35.5667 26.8093 34.6917C25.9316 33.8168 24.9303 33.0363 23.9037 32.4677C22.8922 31.9076 21.7688 31.5049 20.6693 31.5049C18.7688 31.5049 17.0873 32.1418 15.8774 33.3479C14.6672 34.5543 14.0271 36.2325 14.0271 38.1303ZM65.2535 40.818C65.2535 41.9916 65.7199 42.9275 66.533 43.5759C67.2818 44.1731 68.2352 44.4559 69.1296 44.6045C70.4811 44.829 72.1152 44.7973 73.4711 44.7709C73.8742 44.7631 74.2527 44.7557 74.5919 44.7557C76.4925 44.7557 78.174 44.1188 79.3838 42.9128C80.594 41.7063 81.2342 40.0282 81.2342 38.1303C81.2342 36.2325 80.594 34.5543 79.3838 33.3479C78.174 32.1418 76.4925 31.5049 74.5919 31.5049C73.4925 31.5049 72.369 31.9076 71.3576 32.4677C70.3309 33.0363 69.3297 33.8168 68.452 34.6917C67.5743 35.5667 66.7912 36.565 66.2205 37.589C65.6584 38.5976 65.2535 39.7193 65.2535 40.818Z" stroke="black" stroke-width="2.5"/>
</svg>
